  0
SECTION
  2
HEADER
  9
$ACADVER
  1
AC1014
  9
$HANDSEED
  5
FFFF
  9
$MEASUREMENT
 70
     1
  0
ENDSEC
  0
SECTION
  2
TABLES
  0
TABLE
  2
VPORT
  5
8
330
0
100
AcDbSymbolTable
 70
     4
  0
VPORT
  5
2E
330
8
100
AcDbSymbolTableRecord
100
AcDbViewportTableRecord
  2
*ACTIVE
 70
     0
 10
0.0
 20
0.0
 11
1.0
 21
1.0
 12
210.0
 22
148.5
 13
0.0
 23
0.0
 14
10.0
 24
10.0
 15
10.0
 25
10.0
 16
0.0
 26
0.0
 36
1.0
 17
0.0
 27
0.0
 37
0.0
 40
341.0
 41
1.24
 42
50.0
 43
0.0
 44
0.0
 50
0.0
 51
0.0
 71
     0
 72
   100
 73
     1
 74
     3
 75
     0
 76
     0
 77
     0
 78
     0
  0
ENDTAB
  0
TABLE
  2
LTYPE
  5
5
330
0
100
AcDbSymbolTable
 70
     1
  0
LTYPE
  5
14
330
5
100
AcDbSymbolTableRecord
100
AcDbLinetypeTableRecord
  2
BYBLOCK
 70
     0
  3

 72
    65
 73
     0
 40
0.0
  0
LTYPE
  5
15
330
5
100
AcDbSymbolTableRecord
100
AcDbLinetypeTableRecord
  2
BYLAYER
 70
     0
  3

 72
    65
 73
     0
 40
0.0
  0
LTYPE
  5
16
330
5
100
AcDbSymbolTableRecord
100
AcDbLinetypeTableRecord
  2
CONTINUOUS
 70
     0
  3
Solid line
 72
    65
 73
     0
 40
0.0
  0
ENDTAB
  0
TABLE
  2
LAYER
  5
2
100
AcDbSymbolTable
 70
1
  0
LAYER
  5
50
100
AcDbSymbolTableRecord
100
AcDbLayerTableRecord
  2
0
 70
0
  6
CONTINUOUS
  0
ENDTAB
  0
TABLE
  2
STYLE
  5
3
330
0
100
AcDbSymbolTable
 70
     1
  0
STYLE
  5
11
330
3
100
AcDbSymbolTableRecord
100
AcDbTextStyleTableRecord
  2
STANDARD
 70
     0
 40
0.0
 41
1.0
 50
0.0
 71
     0
 42
2.5
  3
txt
  4

  0
ENDTAB
  0
TABLE
  2
VIEW
  5
6
330
0
100
AcDbSymbolTable
 70
     0
  0
ENDTAB
  0
TABLE
  2
UCS
  5
7
330
0
100
AcDbSymbolTable
 70
     0
  0
ENDTAB
  0
TABLE
  2
APPID
  5
9
330
0
100
AcDbSymbolTable
 70
     2
  0
APPID
  5
12
330
9
100
AcDbSymbolTableRecord
100
AcDbRegAppTableRecord
  2
ACAD
 70
     0
  0
ENDTAB
  0
TABLE
  2
DIMSTYLE
  5
A
330
0
100
AcDbSymbolTable
 70
     1
  0
DIMSTYLE
105
27
330
A
100
AcDbSymbolTableRecord
100
AcDbDimStyleTableRecord
  2
ISO-25
 70
     0
  3

  4

  5

  6

  7

 40
1.0
 41
2.5
 42
0.625
 43
3.75
 44
1.25
 45
0.0
 46
0.0
 47
0.0
 48
0.0
140
2.5
141
2.5
142
0.0
143
0.03937007874016
144
1.0
145
0.0
146
1.0
147
0.625
 71
     0
 72
     0
 73
     0
 74
     0
 75
     0
 76
     0
 77
     1
 78
     8
170
     0
171
     3
172
     1
173
     0
174
     0
175
     0
176
     0
177
     0
178
     0
270
     2
271
     2
272
     2
273
     2
274
     3
340
11
275
     0
280
     0
281
     0
282
     0
283
     0
284
     8
285
     0
286
     0
287
     3
288
     0
  0
ENDTAB
  0
TABLE
  2
BLOCK_RECORD
  5
1
330
0
100
AcDbSymbolTable
 70
     1
  0
BLOCK_RECORD
  5
1F
330
1
100
AcDbSymbolTableRecord
100
AcDbBlockTableRecord
  2
*MODEL_SPACE
  0
BLOCK_RECORD
  5
1B
330
1
100
AcDbSymbolTableRecord
100
AcDbBlockTableRecord
  2
*PAPER_SPACE
  0
ENDTAB
  0
ENDSEC
  0
SECTION
  2
BLOCKS
  0
BLOCK
  5
20
330
1F
100
AcDbEntity
  8
0
100
AcDbBlockBegin
  2
*MODEL_SPACE
 70
     0
 10
0.0
 20
0.0
 30
0.0
  3
*MODEL_SPACE
  1

  0
ENDBLK
  5
21
330
1F
100
AcDbEntity
  8
0
100
AcDbBlockEnd
  0
BLOCK
  5
1C
330
1B
100
AcDbEntity
 67
     1
  8
0
100
AcDbBlockBegin
  2
*PAPER_SPACE
  1

  0
ENDBLK
  5
1D
330
1B
100
AcDbEntity
 67
     1
  8
0
100
AcDbBlockEnd
  0
ENDSEC
  0
SECTION
  2
ENTITIES
  0
LWPOLYLINE
  5
100
100
AcDbEntity
  8
0
 62
7
100
AcDbPolyline
 90
1089
 70
1
 10
-0.734460
 20
-7.064211
 30
0.0
 10
-0.786905
 20
-7.057410
 30
0.0
 10
-0.841731
 20
-7.049508
 30
0.0
 10
-0.898772
 20
-7.040533
 30
0.0
 10
-0.957860
 20
-7.030514
 30
0.0
 10
-1.018830
 20
-7.019507
 30
0.0
 10
-1.081515
 20
-7.007569
 30
0.0
 10
-1.145748
 20
-6.994728
 30
0.0
 10
-1.211363
 20
-6.981040
 30
0.0
 10
-1.278194
 20
-6.966562
 30
0.0
 10
-1.346073
 20
-6.951322
 30
0.0
 10
-1.414835
 20
-6.935349
 30
0.0
 10
-1.484313
 20
-6.918726
 30
0.0
 10
-1.554340
 20
-6.901482
 30
0.0
 10
-1.624750
 20
-6.883646
 30
0.0
 10
-1.695377
 20
-6.865273
 30
0.0
 10
-1.766053
 20
-6.846420
 30
0.0
 10
-1.836613
 20
-6.827116
 30
0.0
 10
-1.906890
 20
-6.807417
 30
0.0
 10
-1.976717
 20
-6.787351
 30
0.0
 10
-2.045927
 20
-6.766975
 30
0.0
 10
-2.114356
 20
-6.746344
 30
0.0
 10
-2.181835
 20
-6.725488
 30
0.0
 10
-2.248198
 20
-6.704463
 30
0.0
 10
-2.313280
 20
-6.683296
 30
0.0
 10
-2.376913
 20
-6.662045
 30
0.0
 10
-2.438930
 20
-6.640765
 30
0.0
 10
-2.499166
 20
-6.619486
 30
0.0
 10
-2.557454
 20
-6.598262
 30
0.0
 10
-2.613627
 20
-6.577124
 30
0.0
 10
-2.667519
 20
-6.556127
 30
0.0
 10
-2.718963
 20
-6.535327
 30
0.0
 10
-2.767793
 20
-6.514753
 30
0.0
 10
-2.901527
 20
-6.455289
 30
0.0
 10
-3.034429
 20
-6.392494
 30
0.0
 10
-3.166423
 20
-6.326434
 30
0.0
 10
-3.297434
 20
-6.257188
 30
0.0
 10
-3.427383
 20
-6.184818
 30
0.0
 10
-3.556195
 20
-6.109400
 30
0.0
 10
-3.683793
 20
-6.031001
 30
0.0
 10
-3.810100
 20
-5.949693
 30
0.0
 10
-3.935040
 20
-5.865546
 30
0.0
 10
-4.058537
 20
-5.778630
 30
0.0
 10
-4.180513
 20
-5.689016
 30
0.0
 10
-4.300891
 20
-5.596774
 30
0.0
 10
-4.419597
 20
-5.501976
 30
0.0
 10
-4.536552
 20
-5.404688
 30
0.0
 10
-4.651681
 20
-5.304985
 30
0.0
 10
-4.764906
 20
-5.202936
 30
0.0
 10
-4.876151
 20
-5.098613
 30
0.0
 10
-4.985340
 20
-4.992082
 30
0.0
 10
-5.092395
 20
-4.883418
 30
0.0
 10
-5.197242
 20
-4.772691
 30
0.0
 10
-5.299801
 20
-4.659966
 30
0.0
 10
-5.399998
 20
-4.545319
 30
0.0
 10
-5.497756
 20
-4.428820
 30
0.0
 10
-5.592997
 20
-4.310538
 30
0.0
 10
-5.685646
 20
-4.190543
 30
0.0
 10
-5.775626
 20
-4.068905
 30
0.0
 10
-5.862860
 20
-3.945695
 30
0.0
 10
-5.947272
 20
-3.820984
 30
0.0
 10
-6.028785
 20
-3.694845
 30
0.0
 10
-6.107322
 20
-3.567343
 30
0.0
 10
-6.182807
 20
-3.438550
 30
0.0
 10
-6.255163
 20
-3.308539
 30
0.0
 10
-6.335571
 20
-3.154796
 30
0.0
 10
-6.412022
 20
-2.997767
 30
0.0
 10
-6.484495
 20
-2.837668
 30
0.0
 10
-6.552972
 20
-2.674705
 30
0.0
 10
-6.617432
 20
-2.509091
 30
0.0
 10
-6.677857
 20
-2.341039
 30
0.0
 10
-6.734225
 20
-2.170760
 30
0.0
 10
-6.786518
 20
-1.998464
 30
0.0
 10
-6.834715
 20
-1.824363
 30
0.0
 10
-6.878798
 20
-1.648672
 30
0.0
 10
-6.918746
 20
-1.471600
 30
0.0
 10
-6.954539
 20
-1.293357
 30
0.0
 10
-6.986158
 20
-1.114154
 30
0.0
 10
-7.013585
 20
-0.934206
 30
0.0
 10
-7.036797
 20
-0.753722
 30
0.0
 10
-7.055777
 20
-0.572914
 30
0.0
 10
-7.070503
 20
-0.391993
 30
0.0
 10
-7.080957
 20
-0.211173
 30
0.0
 10
-7.087118
 20
-0.030663
 30
0.0
 10
-7.088952
 20
0.149327
 30
0.0
 10
-7.086468
 20
0.328580
 30
0.0
 10
-7.079633
 20
0.506888
 30
0.0
 10
-7.068426
 20
0.684042
 30
0.0
 10
-7.052830
 20
0.859824
 30
0.0
 10
-7.032824
 20
1.034028
 30
0.0
 10
-7.008386
 20
1.206441
 30
0.0
 10
-6.979499
 20
1.376852
 30
0.0
 10
-6.946142
 20
1.545048
 30
0.0
 10
-6.908295
 20
1.710820
 30
0.0
 10
-6.865939
 20
1.873953
 30
0.0
 10
-6.819055
 20
2.034238
 30
0.0
 10
-6.767622
 20
2.191461
 30
0.0
 10
-6.757883
 20
2.220005
 30
0.0
 10
-6.748640
 20
2.247804
 30
0.0
 10
-6.739885
 20
2.274897
 30
0.0
 10
-6.731613
 20
2.301313
 30
0.0
 10
-6.723818
 20
2.327137
 30
0.0
 10
-6.716495
 20
2.352367
 30
0.0
 10
-6.709639
 20
2.377090
 30
0.0
 10
-6.703244
 20
2.401305
 30
0.0
 10
-6.697306
 20
2.425096
 30
0.0
 10
-6.691817
 20
2.448492
 30
0.0
 10
-6.686774
 20
2.471522
 30
0.0
 10
-6.682171
 20
2.494240
 30
0.0
 10
-6.678002
 20
2.516705
 30
0.0
 10
-6.674263
 20
2.538944
 30
0.0
 10
-6.670947
 20
2.560986
 30
0.0
 10
-6.668048
 20
2.582915
 30
0.0
 10
-6.665565
 20
2.604730
 30
0.0
 10
-6.663476
 20
2.626518
 30
0.0
 10
-6.661811
 20
2.648306
 30
0.0
 10
-6.660541
 20
2.670121
 30
0.0
 10
-6.659666
 20
2.692022
 30
0.0
 10
-6.659158
 20
2.714035
 30
0.0
 10
-6.659039
 20
2.736218
 30
0.0
 10
-6.659295
 20
2.758626
 30
0.0
 10
-6.659916
 20
2.781289
 30
0.0
 10
-6.660903
 20
2.804262
 30
0.0
 10
-6.662258
 20
2.827573
 30
0.0
 10
-6.663951
 20
2.851280
 30
0.0
 10
-6.666012
 20
2.875410
 30
0.0
 10
-6.668410
 20
2.900020
 30
0.0
 10
-6.671148
 20
2.925166
 30
0.0
 10
-6.674213
 20
2.950876
 30
0.0
 10
-6.676866
 20
2.972805
 30
0.0
 10
-6.679293
 20
2.993971
 30
0.0
 10
-6.681522
 20
3.014376
 30
0.0
 10
-6.683526
 20
3.033990
 30
0.0
 10
-6.685304
 20
3.052843
 30
0.0
 10
-6.686856
 20
3.070933
 30
0.0
 10
-6.688211
 20
3.088262
 30
0.0
 10
-6.689340
 20
3.104800
 30
0.0
 10
-6.690243
 20
3.120576
 30
0.0
 10
-6.690920
 20
3.135562
 30
0.0
 10
-6.691400
 20
3.149786
 30
0.0
 10
-6.691651
 20
3.163220
 30
0.0
 10
-6.691684
 20
3.175892
 30
0.0
 10
-6.691498
 20
3.187773
 30
0.0
 10
-6.691103
 20
3.198893
 30
0.0
 10
-6.690482
 20
3.209222
 30
0.0
 10
-6.689635
 20
3.218790
 30
0.0
 10
-6.688563
 20
3.227567
 30
0.0
 10
-6.687293
 20
3.235554
 30
0.0
 10
-6.685797
 20
3.242778
 30
0.0
 10
-6.684075
 20
3.249213
 30
0.0
 10
-6.682128
 20
3.254858
 30
0.0
 10
-6.679983
 20
3.259740
 30
0.0
 10
-6.677613
 20
3.263832
 30
0.0
 10
-6.675016
 20
3.267134
 30
0.0
 10
-6.672222
 20
3.269674
 30
0.0
 10
-6.669200
 20
3.271368
 30
0.0
 10
-6.665957
 20
3.272214
 30
0.0
 10
-6.662497
 20
3.272369
 30
0.0
 10
-6.658819
 20
3.271805
 30
0.0
 10
-6.654925
 20
3.270394
 30
0.0
 10
-6.650813
 20
3.268136
 30
0.0
 10
-6.647339
 20
3.266161
 30
0.0
 10
-6.643932
 20
3.264467
 30
0.0
 10
-6.640599
 20
3.263056
 30
0.0
 10
-6.637339
 20
3.261927
 30
0.0
 10
-6.634159
 20
3.261081
 30
0.0
 10
-6.631063
 20
3.260798
 30
0.0
 10
-6.628052
 20
3.260677
 30
0.0
 10
-6.625131
 20
3.260855
 30
0.0
 10
-6.622305
 20
3.261419
 30
0.0
 10
-6.619568
 20
3.262266
 30
0.0
 10
-6.616943
 20
3.263395
 30
0.0
 10
-6.614431
 20
3.264806
 30
0.0
 10
-6.612033
 20
3.266499
 30
0.0
 10
-6.609718
 20
3.268475
 30
0.0
 10
-6.607545
 20
3.270733
 30
0.0
 10
-6.605485
 20
3.272990
 30
0.0
 10
-6.603538
 20
3.275530
 30
0.0
 10
-6.601731
 20
3.278409
 30
0.0
 10
-6.600066
 20
3.281542
 30
0.0
 10
-6.598514
 20
3.284928
 30
0.0
 10
-6.597103
 20
3.288541
 30
0.0
 10
-6.595833
 20
3.292379
 30
0.0
 10
-6.594732
 20
3.296443
 30
0.0
 10
-6.593773
 20
3.300733
 30
0.0
 10
-6.592954
 20
3.305248
 30
0.0
 10
-6.592305
 20
3.309961
 30
0.0
 10
-6.591825
 20
3.314872
 30
0.0
 10
-6.591515
 20
3.320009
 30
0.0
 10
-6.591363
 20
3.325343
 30
0.0
 10
-6.591385
 20
3.330846
 30
0.0
 10
-6.591584
 20
3.336547
 30
0.0
 10
-6.591951
 20
3.342445
 30
0.0
 10
-6.592430
 20
3.350122
 30
0.0
 10
-6.592628
 20
3.357459
 30
0.0
 10
-6.592542
 20
3.364487
 30
0.0
 10
-6.592175
 20
3.371175
 30
0.0
 10
-6.591498
 20
3.377554
 30
0.0
 10
-6.590538
 20
3.383621
 30
0.0
 10
-6.589268
 20
3.389379
 30
0.0
 10
-6.587688
 20
3.394854
 30
0.0
 10
-6.585797
 20
3.400019
 30
0.0
 10
-6.583595
 20
3.404873
 30
0.0
 10
-6.581084
 20
3.409445
 30
0.0
 10
-6.578247
 20
3.413706
 30
0.0
 10
-6.575084
 20
3.417686
 30
0.0
 10
-6.571587
 20
3.421383
 30
0.0
 10
-6.567757
 20
3.424798
 30
0.0
 10
-6.563586
 20
3.427930
 30
0.0
 10
-6.559070
 20
3.430781
 30
0.0
 10
-6.554208
 20
3.433321
 30
0.0
 10
-6.548992
 20
3.435579
 30
0.0
 10
-6.543421
 20
3.437554
 30
0.0
 10
-6.537489
 20
3.439247
 30
0.0
 10
-6.531192
 20
3.440659
 30
0.0
 10
-6.524526
 20
3.441787
 30
0.0
 10
-6.517485
 20
3.442634
 30
0.0
 10
-6.510065
 20
3.443481
 30
0.0
 10
-6.502265
 20
3.444045
 30
0.0
 10
-6.494077
 20
3.444251
 30
0.0
 10
-6.485501
 20
3.444212
 30
0.0
 10
-6.476529
 20
3.443930
 30
0.0
 10
-6.467159
 20
3.443365
 30
0.0
 10
-6.457386
 20
3.442518
 30
0.0
 10
-6.447203
 20
3.441390
 30
0.0
 10
-6.439360
 20
3.440543
 30
0.0
 10
-6.431703
 20
3.439978
 30
0.0
 10
-6.424241
 20
3.439414
 30
0.0
 10
-6.416983
 20
3.439132
 30
0.0
 10
-6.409936
 20
3.438948
 30
0.0
 10
-6.403106
 20
3.438906
 30
0.0
 10
-6.396502
 20
3.439002
 30
0.0
 10
-6.390132
 20
3.439236
 30
0.0
 10
-6.384002
 20
3.439518
 30
0.0
 10
-6.378121
 20
3.440083
 30
0.0
 10
-6.372496
 20
3.440647
 30
0.0
 10
-6.367137
 20
3.441494
 30
0.0
 10
-6.362048
 20
3.442341
 30
0.0
 10
-6.357239
 20
3.443470
 30
0.0
 10
-6.352718
 20
3.444598
 30
0.0
 10
-6.348490
 20
3.445727
 30
0.0
 10
-6.344567
 20
3.447138
 30
0.0
 10
-6.340952
 20
3.448550
 30
0.0
 10
-6.337656
 20
3.450243
 30
0.0
 10
-6.334687
 20
3.451936
 30
0.0
 10
-6.332062
 20
3.453630
 30
0.0
 10
-6.329776
 20
3.455605
 30
0.0
 10
-6.327829
 20
3.457581
 30
0.0
 10
-6.326248
 20
3.459556
 30
0.0
 10
-6.325035
 20
3.461814
 30
0.0
 10
-6.324188
 20
3.464072
 30
0.0
 10
-6.323708
 20
3.466330
 30
0.0
 10
-6.323620
 20
3.468870
 30
0.0
 10
-6.323930
 20
3.471410
 30
0.0
 10
-6.324636
 20
3.473950
 30
0.0
 10
-6.325765
 20
3.476772
 30
0.0
 10
-6.327289
 20
3.479594
 30
0.0
 10
-6.330182
 20
3.487327
 30
0.0
 10
-6.329024
 20
3.494749
 30
0.0
 10
-6.323710
 20
3.501833
 30
0.0
 10
-6.314137
 20
3.508606
 30
0.0
 10
-6.300201
 20
3.515069
 30
0.0
 10
-6.281803
 20
3.521222
 30
0.0
 10
-6.258839
 20
3.527064
 30
0.0
 10
-6.231206
 20
3.532595
 30
0.0
 10
-6.198803
 20
3.537845
 30
0.0
 10
-6.161527
 20
3.542812
 30
0.0
 10
-6.119275
 20
3.547468
 30
0.0
 10
-6.071945
 20
3.551843
 30
0.0
 10
-6.019434
 20
3.555963
 30
0.0
 10
-5.961640
 20
3.559802
 30
0.0
 10
-5.898461
 20
3.563358
 30
0.0
 10
-5.829794
 20
3.566660
 30
0.0
 10
-5.755536
 20
3.569708
 30
0.0
 10
-5.675585
 20
3.572530
 30
0.0
 10
-5.589838
 20
3.575070
 30
0.0
 10
-5.498194
 20
3.577328
 30
0.0
 10
-5.400549
 20
3.579303
 30
0.0
 10
-5.296801
 20
3.580996
 30
0.0
 10
-5.186848
 20
3.582690
 30
0.0
 10
-5.070588
 20
3.584101
 30
0.0
 10
-4.947916
 20
3.585230
 30
0.0
 10
-4.818732
 20
3.586076
 30
0.0
 10
-4.682933
 20
3.586641
 30
0.0
 10
-4.540417
 20
3.587205
 30
0.0
 10
-4.391079
 20
3.587488
 30
0.0
 10
-4.234820
 20
3.587569
 30
0.0
 10
-4.071535
 20
3.587456
 30
0.0
 10
-3.901123
 20
3.587174
 30
0.0
 10
-3.779187
 20
3.586892
 30
0.0
 10
-3.661719
 20
3.586328
 30
0.0
 10
-3.548569
 20
3.585763
 30
0.0
 10
-3.439586
 20
3.584916
 30
0.0
 10
-3.334618
 20
3.583788
 30
0.0
 10
-3.233515
 20
3.582659
 30
0.0
 10
-3.136127
 20
3.581248
 30
0.0
 10
-3.042303
 20
3.579554
 30
0.0
 10
-2.951891
 20
3.577861
 30
0.0
 10
-2.864743
 20
3.575885
 30
0.0
 10
-2.780705
 20
3.573628
 30
0.0
 10
-2.699628
 20
3.571088
 30
0.0
 10
-2.621362
 20
3.568265
 30
0.0
 10
-2.545755
 20
3.565302
 30
0.0
 10
-2.472657
 20
3.562085
 30
0.0
 10
-2.401917
 20
3.558613
 30
0.0
 10
-2.333384
 20
3.554860
 30
0.0
 10
-2.266908
 20
3.550824
 30
0.0
 10
-2.202338
 20
3.546506
 30
0.0
 10
-2.139523
 20
3.541906
 30
0.0
 10
-2.078312
 20
3.536995
 30
0.0
 10
-2.018555
 20
3.531774
 30
0.0
 10
-1.960102
 20
3.526242
 30
0.0
 10
-1.902800
 20
3.520372
 30
0.0
 10
-1.846501
 20
3.514163
 30
0.0
 10
-1.791052
 20
3.507616
 30
0.0
 10
-1.736303
 20
3.500730
 30
0.0
 10
-1.682105
 20
3.493476
 30
0.0
 10
-1.628304
 20
3.485856
 30
0.0
 10
-1.574752
 20
3.477870
 30
0.0
 10
-1.521297
 20
3.469516
 30
0.0
 10
-1.467789
 20
3.460767
 30
0.0
 10
-1.377082
 20
3.446204
 30
0.0
 10
-1.284899
 20
3.432601
 30
0.0
 10
-1.191355
 20
3.419929
 30
0.0
 10
-1.096564
 20
3.408217
 30
0.0
 10
-1.000641
 20
3.397436
 30
0.0
 10
-0.903701
 20
3.387587
 30
0.0
 10
-0.805857
 20
3.378697
 30
0.0
 10
-0.707225
 20
3.370738
 30
0.0
 10
-0.607919
 20
3.363711
 30
0.0
 10
-0.508053
 20
3.357643
 30
0.0
 10
-0.407741
 20
3.352506
 30
0.0
 10
-0.307100
 20
3.348330
 30
0.0
 10
-0.206241
 20
3.345084
 30
0.0
 10
-0.105281
 20
3.342826
 30
0.0
 10
-0.004334
 20
3.341415
 30
0.0
 10
0.096486
 20
3.340851
 30
0.0
 10
0.197064
 20
3.341415
 30
0.0
 10
0.297286
 20
3.342826
 30
0.0
 10
0.397037
 20
3.345084
 30
0.0
 10
0.496203
 20
3.348414
 30
0.0
 10
0.594670
 20
3.352704
 30
0.0
 10
0.692322
 20
3.357925
 30
0.0
 10
0.789045
 20
3.364078
 30
0.0
 10
0.884726
 20
3.371190
 30
0.0
 10
0.979249
 20
3.379233
 30
0.0
 10
1.072499
 20
3.388208
 30
0.0
 10
1.164363
 20
3.398142
 30
0.0
 10
1.254726
 20
3.409007
 30
0.0
 10
1.343474
 20
3.420804
 30
0.0
 10
1.430491
 20
3.433561
 30
0.0
 10
1.515663
 20
3.447248
 30
0.0
 10
1.598877
 20
3.461868
 30
0.0
 10
1.649850
 20
3.471040
 30
0.0
 10
1.700627
 20
3.479760
 30
0.0
 10
1.751424
 20
3.488058
 30
0.0
 10
1.802461
 20
3.495932
 30
0.0
 10
1.853954
 20
3.503411
 30
0.0
 10
1.906121
 20
3.510466
 30
0.0
 10
1.959180
 20
3.517127
 30
0.0
 10
2.013349
 20
3.523420
 30
0.0
 10
2.068845
 20
3.529347
 30
0.0
 10
2.125886
 20
3.534907
 30
0.0
 10
2.184689
 20
3.540128
 30
0.0
 10
2.245473
 20
3.545010
 30
0.0
 10
2.308455
 20
3.549554
 30
0.0
 10
2.373852
 20
3.553787
 30
0.0
 10
2.441883
 20
3.557710
 30
0.0
 10
2.512764
 20
3.561323
 30
0.0
 10
2.586715
 20
3.564653
 30
0.0
 10
2.663952
 20
3.567729
 30
0.0
 10
2.744693
 20
3.570551
 30
0.0
 10
2.829155
 20
3.573091
 30
0.0
 10
2.917557
 20
3.575349
 30
0.0
 10
3.010116
 20
3.577325
 30
0.0
 10
3.107050
 20
3.579300
 30
0.0
 10
3.208576
 20
3.580994
 30
0.0
 10
3.314913
 20
3.582405
 30
0.0
 10
3.426277
 20
3.583534
 30
0.0
 10
3.542887
 20
3.584662
 30
0.0
 10
3.664960
 20
3.585509
 30
0.0
 10
3.792714
 20
3.586356
 30
0.0
 10
3.926366
 20
3.586920
 30
0.0
 10
4.066135
 20
3.587485
 30
0.0
 10
4.212237
 20
3.587767
 30
0.0
 10
4.273071
 20
3.587866
 30
0.0
 10
4.333905
 20
3.587964
 30
0.0
 10
4.394740
 20
3.588063
 30
0.0
 10
4.455574
 20
3.588162
 30
0.0
 10
4.516408
 20
3.588261
 30
0.0
 10
4.577242
 20
3.588360
 30
0.0
 10
4.638076
 20
3.588458
 30
0.0
 10
4.698911
 20
3.588557
 30
0.0
 10
4.759745
 20
3.588656
 30
0.0
 10
4.820579
 20
3.588755
 30
0.0
 10
4.881413
 20
3.588853
 30
0.0
 10
4.942247
 20
3.588952
 30
0.0
 10
5.003081
 20
3.589051
 30
0.0
 10
5.063916
 20
3.589150
 30
0.0
 10
5.124750
 20
3.589249
 30
0.0
 10
5.185584
 20
3.589347
 30
0.0
 10
5.246418
 20
3.589446
 30
0.0
 10
5.307252
 20
3.589545
 30
0.0
 10
5.368086
 20
3.589644
 30
0.0
 10
5.428921
 20
3.589742
 30
0.0
 10
5.489755
 20
3.589841
 30
0.0
 10
5.550589
 20
3.589940
 30
0.0
 10
5.611423
 20
3.590039
 30
0.0
 10
5.672257
 20
3.590138
 30
0.0
 10
5.733091
 20
3.590236
 30
0.0
 10
5.793925
 20
3.590335
 30
0.0
 10
5.854760
 20
3.590434
 30
0.0
 10
5.915594
 20
3.590533
 30
0.0
 10
5.976428
 20
3.590631
 30
0.0
 10
6.037262
 20
3.590730
 30
0.0
 10
6.098096
 20
3.590829
 30
0.0
 10
6.158930
 20
3.590928
 30
0.0
 10
6.155651
 20
3.596121
 30
0.0
 10
6.152372
 20
3.601342
 30
0.0
 10
6.149092
 20
3.606563
 30
0.0
 10
6.145813
 20
3.611784
 30
0.0
 10
6.142533
 20
3.617005
 30
0.0
 10
6.139254
 20
3.622226
 30
0.0
 10
6.135975
 20
3.627447
 30
0.0
 10
6.132695
 20
3.632668
 30
0.0
 10
6.129416
 20
3.637890
 30
0.0
 10
6.126136
 20
3.643111
 30
0.0
 10
6.122857
 20
3.648332
 30
0.0
 10
6.119577
 20
3.653553
 30
0.0
 10
6.116298
 20
3.658774
 30
0.0
 10
6.113019
 20
3.663995
 30
0.0
 10
6.109739
 20
3.669216
 30
0.0
 10
6.106460
 20
3.674437
 30
0.0
 10
6.103180
 20
3.679658
 30
0.0
 10
6.099901
 20
3.684880
 30
0.0
 10
6.096621
 20
3.690101
 30
0.0
 10
6.093342
 20
3.695322
 30
0.0
 10
6.090063
 20
3.700543
 30
0.0
 10
6.086783
 20
3.705764
 30
0.0
 10
6.083504
 20
3.710985
 30
0.0
 10
6.080224
 20
3.716206
 30
0.0
 10
6.076945
 20
3.721427
 30
0.0
 10
6.073665
 20
3.726648
 30
0.0
 10
6.070386
 20
3.731870
 30
0.0
 10
6.067107
 20
3.737091
 30
0.0
 10
6.063827
 20
3.742312
 30
0.0
 10
6.060548
 20
3.747505
 30
0.0
 10
6.057268
 20
3.752726
 30
0.0
 10
6.053989
 20
3.757947
 30
0.0
 10
5.949756
 20
3.918771
 30
0.0
 10
5.841645
 20
4.076285
 30
0.0
 10
5.729738
 20
4.230432
 30
0.0
 10
5.614116
 20
4.381161
 30
0.0
 10
5.494861
 20
4.528416
 30
0.0
 10
5.372054
 20
4.672144
 30
0.0
 10
5.245776
 20
4.812287
 30
0.0
 10
5.116109
 20
4.948795
 30
0.0
 10
4.983133
 20
5.081614
 30
0.0
 10
4.846932
 20
5.210686
 30
0.0
 10
4.707585
 20
5.335959
 30
0.0
 10
4.565174
 20
5.457379
 30
0.0
 10
4.419781
 20
5.574894
 30
0.0
 10
4.271486
 20
5.688443
 30
0.0
 10
4.120372
 20
5.797979
 30
0.0
 10
3.966520
 20
5.903445
 30
0.0
 10
3.810010
 20
6.004786
 30
0.0
 10
3.650925
 20
6.101949
 30
0.0
 10
3.489346
 20
6.194879
 30
0.0
 10
3.325353
 20
6.283523
 30
0.0
 10
3.159029
 20
6.367822
 30
0.0
 10
2.990455
 20
6.447731
 30
0.0
 10
2.819712
 20
6.523186
 30
0.0
 10
2.646882
 20
6.594139
 30
0.0
 10
2.472045
 20
6.660535
 30
0.0
 10
2.295284
 20
6.722319
 30
0.0
 10
2.116679
 20
6.779435
 30
0.0
 10
1.936312
 20
6.831832
 30
0.0
 10
1.754265
 20
6.879455
 30
0.0
 10
1.570618
 20
6.922248
 30
0.0
 10
1.385454
 20
6.960156
 30
0.0
 10
1.198853
 20
6.993128
 30
0.0
 10
0.941757
 20
7.030057
 30
0.0
 10
0.684570
 20
7.057263
 30
0.0
 10
0.427547
 20
7.074874
 30
0.0
 10
0.170940
 20
7.082973
 30
0.0
 10
-0.084996
 20
7.081562
 30
0.0
 10
-0.340008
 20
7.071007
 30
0.0
 10
-0.593842
 20
7.051308
 30
0.0
 10
-0.846243
 20
7.022550
 30
0.0
 10
-1.096959
 20
6.984853
 30
0.0
 10
-1.345735
 20
6.938329
 30
0.0
 10
-1.592318
 20
6.883092
 30
0.0
 10
-1.836454
 20
6.819254
 30
0.0
 10
-2.077889
 20
6.746926
 30
0.0
 10
-2.316370
 20
6.666216
 30
0.0
 10
-2.551642
 20
6.577240
 30
0.0
 10
-2.783452
 20
6.480104
 30
0.0
 10
-3.011545
 20
6.374929
 30
0.0
 10
-3.235669
 20
6.261820
 30
0.0
 10
-3.455569
 20
6.140887
 30
0.0
 10
-3.670992
 20
6.012248
 30
0.0
 10
-3.881684
 20
5.876008
 30
0.0
 10
-4.087391
 20
5.732283
 30
0.0
 10
-4.287859
 20
5.581184
 30
0.0
 10
-4.482835
 20
5.422824
 30
0.0
 10
-4.672064
 20
5.257309
 30
0.0
 10
-4.855294
 20
5.084755
 30
0.0
 10
-5.032269
 20
4.905276
 30
0.0
 10
-5.202738
 20
4.718979
 30
0.0
 10
-5.366444
 20
4.525975
 30
0.0
 10
-5.523136
 20
4.326382
 30
0.0
 10
-5.672558
 20
4.120303
 30
0.0
 10
-5.814458
 20
3.907858
 30
0.0
 10
-5.836279
 20
3.874302
 30
0.0
 10
-5.857804
 20
3.842210
 30
0.0
 10
-5.878977
 20
3.811620
 30
0.0
 10
-5.899734
 20
3.782571
 30
0.0
 10
-5.920020
 20
3.755111
 30
0.0
 10
-5.939779
 20
3.729259
 30
0.0
 10
-5.958947
 20
3.705044
 30
0.0
 10
-5.977469
 20
3.682523
 30
0.0
 10
-5.995283
 20
3.661723
 30
0.0
 10
-6.012332
 20
3.642673
 30
0.0
 10
-6.028557
 20
3.625429
 30
0.0
 10
-6.043902
 20
3.610020
 30
0.0
 10
-6.058304
 20
3.596473
 30
0.0
 10
-6.071706
 20
3.584846
 30
0.0
 10
-6.084048
 20
3.575166
 30
0.0
 10
-6.095275
 20
3.567461
 30
0.0
 10
-6.105325
 20
3.561788
 30
0.0
 10
-6.114138
 20
3.558148
 30
0.0
 10
-6.121660
 20
3.556737
 30
0.0
 10
-6.127829
 20
3.557301
 30
0.0
 10
-6.132587
 20
3.560123
 30
0.0
 10
-6.135875
 20
3.565090
 30
0.0
 10
-6.137625
 20
3.572287
 30
0.0
 10
-6.137797
 20
3.581770
 30
0.0
 10
-6.136329
 20
3.593567
 30
0.0
 10
-6.133151
 20
3.607734
 30
0.0
 10
-6.128209
 20
3.624272
 30
0.0
 10
-6.121445
 20
3.643238
 30
0.0
 10
-6.112800
 20
3.664658
 30
0.0
 10
-6.102214
 20
3.688591
 30
0.0
 10
-6.089630
 20
3.715063
 30
0.0
 10
-6.074988
 20
3.744104
 30
0.0
 10
-6.037988
 20
3.812393
 30
0.0
 10
-5.996292
 20
3.883383
 30
0.0
 10
-5.950118
 20
3.956849
 30
0.0
 10
-5.899684
 20
4.032575
 30
0.0
 10
-5.845207
 20
4.110341
 30
0.0
 10
-5.786905
 20
4.189933
 30
0.0
 10
-5.724996
 20
4.271131
 30
0.0
 10
-5.659697
 20
4.353715
 30
0.0
 10
-5.591227
 20
4.437467
 30
0.0
 10
-5.519802
 20
4.522168
 30
0.0
 10
-5.445642
 20
4.607602
 30
0.0
 10
-5.368963
 20
4.693550
 30
0.0
 10
-5.289983
 20
4.779795
 30
0.0
 10
-5.208920
 20
4.866112
 30
0.0
 10
-5.125991
 20
4.952292
 30
0.0
 10
-5.041415
 20
5.038110
 30
0.0
 10
-4.955409
 20
5.123349
 30
0.0
 10
-4.868191
 20
5.207796
 30
0.0
 10
-4.779978
 20
5.291224
 30
0.0
 10
-4.690988
 20
5.373421
 30
0.0
 10
-4.601439
 20
5.454165
 30
0.0
 10
-4.511549
 20
5.533240
 30
0.0
 10
-4.421536
 20
5.610425
 30
0.0
 10
-4.331616
 20
5.685505
 30
0.0
 10
-4.242009
 20
5.758262
 30
0.0
 10
-4.152930
 20
5.828473
 30
0.0
 10
-4.064599
 20
5.895924
 30
0.0
 10
-3.977234
 20
5.960395
 30
0.0
 10
-3.891051
 20
6.021668
 30
0.0
 10
-3.806268
 20
6.079524
 30
0.0
 10
-3.723103
 20
6.133747
 30
0.0
 10
-3.641775
 20
6.184115
 30
0.0
 10
-3.584546
 20
6.218022
 30
0.0
 10
-3.525469
 20
6.251959
 30
0.0
 10
-3.464655
 20
6.285882
 30
0.0
 10
-3.402213
 20
6.319749
 30
0.0
 10
-3.338253
 20
6.353511
 30
0.0
 10
-3.272883
 20
6.387129
 30
0.0
 10
-3.206214
 20
6.420558
 30
0.0
 10
-3.138356
 20
6.453753
 30
0.0
 10
-3.069418
 20
6.486672
 30
0.0
 10
-2.999511
 20
6.519268
 30
0.0
 10
-2.928742
 20
6.551498
 30
0.0
 10
-2.857223
 20
6.583322
 30
0.0
 10
-2.785063
 20
6.614691
 30
0.0
 10
-2.712372
 20
6.645563
 30
0.0
 10
-2.639258
 20
6.675893
 30
0.0
 10
-2.565833
 20
6.705640
 30
0.0
 10
-2.492205
 20
6.734756
 30
0.0
 10
-2.418485
 20
6.763204
 30
0.0
 10
-2.344782
 20
6.790947
 30
0.0
 10
-2.271205
 20
6.817927
 30
0.0
 10
-2.197865
 20
6.844089
 30
0.0
 10
-2.124871
 20
6.869405
 30
0.0
 10
-2.052332
 20
6.893817
 30
0.0
 10
-1.980359
 20
6.917298
 30
0.0
 10
-1.909061
 20
6.939819
 30
0.0
 10
-1.838548
 20
6.961296
 30
0.0
 10
-1.768929
 20
6.981701
 30
0.0
 10
-1.700314
 20
7.001005
 30
0.0
 10
-1.632813
 20
7.019152
 30
0.0
 10
-1.566535
 20
7.036113
 30
0.0
 10
-1.501590
 20
7.051833
 30
0.0
 10
-1.438089
 20
7.066255
 30
0.0
 10
-1.366101
 20
7.081438
 30
0.0
 10
-1.292409
 20
7.095803
 30
0.0
 10
-1.217123
 20
7.109322
 30
0.0
 10
-1.140353
 20
7.122022
 30
0.0
 10
-1.062209
 20
7.133875
 30
0.0
 10
-0.982801
 20
7.144882
 30
0.0
 10
-0.902237
 20
7.155042
 30
0.0
 10
-0.820629
 20
7.164355
 30
0.0
 10
-0.738087
 20
7.172822
 30
0.0
 10
-0.654719
 20
7.180442
 30
0.0
 10
-0.570636
 20
7.187215
 30
0.0
 10
-0.485947
 20
7.193142
 30
0.0
 10
-0.400763
 20
7.198193
 30
0.0
 10
-0.315194
 20
7.202399
 30
0.0
 10
-0.229348
 20
7.205729
 30
0.0
 10
-0.143336
 20
7.208269
 30
0.0
 10
-0.057269
 20
7.209962
 30
0.0
 10
0.028746
 20
7.210809
 30
0.0
 10
0.114597
 20
7.210665
 30
0.0
 10
0.200174
 20
7.209536
 30
0.0
 10
0.285369
 20
7.207560
 30
0.0
 10
0.370070
 20
7.204738
 30
0.0
 10
0.454169
 20
7.201069
 30
0.0
 10
0.537555
 20
7.196526
 30
0.0
 10
0.620119
 20
7.191079
 30
0.0
 10
0.701750
 20
7.184757
 30
0.0
 10
0.782340
 20
7.177532
 30
0.0
 10
0.861777
 20
7.169404
 30
0.0
 10
0.939953
 20
7.160373
 30
0.0
 10
1.016757
 20
7.150439
 30
0.0
 10
1.092079
 20
7.139601
 30
0.0
 10
1.165810
 20
7.127861
 30
0.0
 10
1.318390
 20
7.100965
 30
0.0
 10
1.469037
 20
7.071603
 30
0.0
 10
1.617785
 20
7.039760
 30
0.0
 10
1.764668
 20
7.005422
 30
0.0
 10
1.909722
 20
6.968563
 30
0.0
 10
2.052979
 20
6.929176
 30
0.0
 10
2.194473
 20
6.887233
 30
0.0
 10
2.334240
 20
6.842723
 30
0.0
 10
2.472313
 20
6.795623
 30
0.0
 10
2.608726
 20
6.745918
 30
0.0
 10
2.743513
 20
6.693589
 30
0.0
 10
2.876709
 20
6.638615
 30
0.0
 10
3.008347
 20
6.580982
 30
0.0
 10
3.138461
 20
6.520671
 30
0.0
 10
3.267086
 20
6.457665
 30
0.0
 10
3.394256
 20
6.391941
 30
0.0
 10
3.520005
 20
6.323485
 30
0.0
 10
3.644367
 20
6.252281
 30
0.0
 10
3.767376
 20
6.178304
 30
0.0
 10
3.889066
 20
6.101543
 30
0.0
 10
4.009472
 20
6.021973
 30
0.0
 10
4.128627
 20
5.939584
 30
0.0
 10
4.246565
 20
5.854350
 30
0.0
 10
4.363321
 20
5.766260
 30
0.0
 10
4.478929
 20
5.675289
 30
0.0
 10
4.593422
 20
5.581424
 30
0.0
 10
4.706836
 20
5.484645
 30
0.0
 10
4.819204
 20
5.384933
 30
0.0
 10
4.930559
 20
5.282274
 30
0.0
 10
5.040937
 20
5.176644
 30
0.0
 10
5.150372
 20
5.068028
 30
0.0
 10
5.258897
 20
4.956409
 30
0.0
 10
5.307434
 20
4.905056
 30
0.0
 10
5.356035
 20
4.852566
 30
0.0
 10
5.404583
 20
4.799099
 30
0.0
 10
5.452961
 20
4.744819
 30
0.0
 10
5.501052
 20
4.689887
 30
0.0
 10
5.548740
 20
4.634470
 30
0.0
 10
5.595907
 20
4.578728
 30
0.0
 10
5.642437
 20
4.522823
 30
0.0
 10
5.688212
 20
4.466920
 30
0.0
 10
5.733117
 20
4.411181
 30
0.0
 10
5.777034
 20
4.355770
 30
0.0
 10
5.819846
 20
4.300847
 30
0.0
 10
5.861436
 20
4.246575
 30
0.0
 10
5.901688
 20
4.193117
 30
0.0
 10
5.940485
 20
4.140640
 30
0.0
 10
5.977711
 20
4.089301
 30
0.0
 10
6.013247
 20
4.039266
 30
0.0
 10
6.046977
 20
3.990698
 30
0.0
 10
6.078785
 20
3.943756
 30
0.0
 10
6.108553
 20
3.898609
 30
0.0
 10
6.136166
 20
3.855415
 30
0.0
 10
6.161503
 20
3.814338
 30
0.0
 10
6.184454
 20
3.775541
 30
0.0
 10
6.204895
 20
3.739188
 30
0.0
 10
6.222715
 20
3.705439
 30
0.0
 10
6.237794
 20
3.674457
 30
0.0
 10
6.250014
 20
3.646404
 30
0.0
 10
6.259262
 20
3.621456
 30
0.0
 10
6.265418
 20
3.599753
 30
0.0
 10
6.268367
 20
3.581465
 30
0.0
 10
6.268000
 20
3.566761
 30
0.0
 10
6.264182
 20
3.555811
 30
0.0
 10
6.262714
 20
3.553271
 30
0.0
 10
6.261642
 20
3.550731
 30
0.0
 10
6.260964
 20
3.548473
 30
0.0
 10
6.260654
 20
3.546215
 30
0.0
 10
6.260714
 20
3.544240
 30
0.0
 10
6.261137
 20
3.542264
 30
0.0
 10
6.261927
 20
3.540571
 30
0.0
 10
6.263056
 20
3.538878
 30
0.0
 10
6.264524
 20
3.537466
 30
0.0
 10
6.266330
 20
3.536055
 30
0.0
 10
6.268447
 20
3.534644
 30
0.0
 10
6.270902
 20
3.533515
 30
0.0
 10
6.273668
 20
3.532386
 30
0.0
 10
6.276730
 20
3.531540
 30
0.0
 10
6.280091
 20
3.530693
 30
0.0
 10
6.283743
 20
3.530129
 30
0.0
 10
6.287680
 20
3.529846
 30
0.0
 10
6.291894
 20
3.529576
 30
0.0
 10
6.296376
 20
3.529449
 30
0.0
 10
6.301120
 20
3.529468
 30
0.0
 10
6.306118
 20
3.529638
 30
0.0
 10
6.311364
 20
3.529920
 30
0.0
 10
6.316851
 20
3.530484
 30
0.0
 10
6.322571
 20
3.531049
 30
0.0
 10
6.328518
 20
3.531895
 30
0.0
 10
6.334684
 20
3.532742
 30
0.0
 10
6.341063
 20
3.533871
 30
0.0
 10
6.347647
 20
3.535000
 30
0.0
 10
6.354429
 20
3.536411
 30
0.0
 10
6.361400
 20
3.537822
 30
0.0
 10
6.368554
 20
3.539515
 30
0.0
 10
6.375886
 20
3.541491
 30
0.0
 10
6.385473
 20
3.544031
 30
0.0
 10
6.394597
 20
3.546289
 30
0.0
 10
6.403259
 20
3.548264
 30
0.0
 10
6.411460
 20
3.549958
 30
0.0
 10
6.419207
 20
3.551369
 30
0.0
 10
6.426503
 20
3.552498
 30
0.0
 10
6.433349
 20
3.553627
 30
0.0
 10
6.439750
 20
3.554473
 30
0.0
 10
6.445708
 20
3.555038
 30
0.0
 10
6.451225
 20
3.555303
 30
0.0
 10
6.456305
 20
3.555317
 30
0.0
 10
6.460953
 20
3.555080
 30
0.0
 10
6.465170
 20
3.554516
 30
0.0
 10
6.468960
 20
3.553669
 30
0.0
 10
6.472324
 20
3.552540
 30
0.0
 10
6.475268
 20
3.551411
 30
0.0
 10
6.477808
 20
3.550000
 30
0.0
 10
6.479924
 20
3.548307
 30
0.0
 10
6.481618
 20
3.546331
 30
0.0
 10
6.482916
 20
3.544073
 30
0.0
 10
6.483791
 20
3.541533
 30
0.0
 10
6.484271
 20
3.538683
 30
0.0
 10
6.484353
 20
3.535578
 30
0.0
 10
6.484043
 20
3.532192
 30
0.0
 10
6.483337
 20
3.528523
 30
0.0
 10
6.482237
 20
3.524600
 30
0.0
 10
6.480741
 20
3.520395
 30
0.0
 10
6.478878
 20
3.515908
 30
0.0
 10
6.476620
 20
3.511138
 30
0.0
 10
6.473996
 20
3.506086
 30
0.0
 10
6.470996
 20
3.500752
 30
0.0
 10
6.467623
 20
3.495136
 30
0.0
 10
6.464234
 20
3.489520
 30
0.0
 10
6.461203
 20
3.484186
 30
0.0
 10
6.458521
 20
3.479162
 30
0.0
 10
6.456207
 20
3.474421
 30
0.0
 10
6.454260
 20
3.469962
 30
0.0
 10
6.452679
 20
3.465785
 30
0.0
 10
6.451494
 20
3.461890
 30
0.0
 10
6.450676
 20
3.458306
 30
0.0
 10
6.450224
 20
3.455004
 30
0.0
 10
6.450167
 20
3.451984
 30
0.0
 10
6.450506
 20
3.449162
 30
0.0
 10
6.451211
 20
3.446622
 30
0.0
 10
6.452312
 20
3.444364
 30
0.0
 10
6.453808
 20
3.442389
 30
0.0
 10
6.455699
 20
3.440695
 30
0.0
 10
6.457985
 20
3.439284
 30
0.0
 10
6.460694
 20
3.438155
 30
0.0
 10
6.463798
 20
3.437309
 30
0.0
 10
6.467312
 20
3.436744
 30
0.0
 10
6.471238
 20
3.436465
 30
0.0
 10
6.475578
 20
3.436456
 30
0.0
 10
6.480337
 20
3.436710
 30
0.0
 10
6.485515
 20
3.437275
 30
0.0
 10
6.491118
 20
3.438121
 30
0.0
 10
6.497146
 20
3.439250
 30
0.0
 10
6.503603
 20
3.440661
 30
0.0
 10
6.510492
 20
3.442355
 30
0.0
 10
6.517816
 20
3.444048
 30
0.0
 10
6.525577
 20
3.446024
 30
0.0
 10
6.533781
 20
3.448281
 30
0.0
 10
6.542428
 20
3.450821
 30
0.0
 10
6.551522
 20
3.453644
 30
0.0
 10
6.558837
 20
3.455901
 30
0.0
 10
6.566146
 20
3.457877
 30
0.0
 10
6.573445
 20
3.459570
 30
0.0
 10
6.580720
 20
3.460981
 30
0.0
 10
6.587965
 20
3.462393
 30
0.0
 10
6.595167
 20
3.463521
 30
0.0
 10
6.602319
 20
3.464368
 30
0.0
 10
6.609411
 20
3.464933
 30
0.0
 10
6.616433
 20
3.465215
 30
0.0
 10
6.623375
 20
3.465376
 30
0.0
 10
6.630231
 20
3.465319
 30
0.0
 10
6.636987
 20
3.465045
 30
0.0
 10
6.643636
 20
3.464481
 30
0.0
 10
6.650167
 20
3.463917
 30
0.0
 10
6.656570
 20
3.463070
 30
0.0
 10
6.662839
 20
3.461941
 30
0.0
 10
6.668963
 20
3.460530
 30
0.0
 10
6.674929
 20
3.459119
 30
0.0
 10
6.680731
 20
3.457425
 30
0.0
 10
6.686359
 20
3.455450
 30
0.0
 10
6.691803
 20
3.453192
 30
0.0
 10
6.697055
 20
3.450934
 30
0.0
 10
6.702104
 20
3.448394
 30
0.0
 10
6.706939
 20
3.445572
 30
0.0
 10
6.711553
 20
3.442665
 30
0.0
 10
6.715936
 20
3.439561
 30
0.0
 10
6.720076
 20
3.436287
 30
0.0
 10
6.723968
 20
3.432816
 30
0.0
 10
6.727597
 20
3.429175
 30
0.0
 10
6.730959
 20
3.425337
 30
0.0
 10
6.734040
 20
3.421329
 30
0.0
 10
6.736834
 20
3.417124
 30
0.0
 10
6.739795
 20
3.412242
 30
0.0
 10
6.742476
 20
3.407613
 30
0.0
 10
6.744875
 20
3.403239
 30
0.0
 10
6.746992
 20
3.399118
 30
0.0
 10
6.748826
 20
3.395252
 30
0.0
 10
6.750378
 20
3.391639
 30
0.0
 10
6.751648
 20
3.388281
 30
0.0
 10
6.752664
 20
3.385177
 30
0.0
 10
6.753398
 20
3.382298
 30
0.0
 10
6.753850
 20
3.379758
 30
0.0
 10
6.754011
 20
3.377500
 30
0.0
 10
6.753892
 20
3.375525
 30
0.0
 10
6.753497
 20
3.373549
 30
0.0
 10
6.752820
 20
3.371856
 30
0.0
 10
6.751860
 20
3.370445
 30
0.0
 10
6.750619
 20
3.369316
 30
0.0
 10
6.749095
 20
3.368469
 30
0.0
 10
6.747288
 20
3.367905
 30
0.0
 10
6.745200
 20
3.367622
 30
0.0
 10
6.742829
 20
3.367538
 30
0.0
 10
6.740176
 20
3.367704
 30
0.0
 10
6.737247
 20
3.367986
 30
0.0
 10
6.734035
 20
3.368551
 30
0.0
 10
6.730541
 20
3.369397
 30
0.0
 10
6.726765
 20
3.370526
 30
0.0
 10
6.722707
 20
3.371937
 30
0.0
 10
6.718369
 20
3.373631
 30
0.0
 10
6.713746
 20
3.375606
 30
0.0
 10
6.708841
 20
3.377864
 30
0.0
 10
6.703654
 20
3.380404
 30
0.0
 10
6.698185
 20
3.383226
 30
0.0
 10
6.692433
 20
3.386161
 30
0.0
 10
6.687785
 20
3.388419
 30
0.0
 10
6.683498
 20
3.390395
 30
0.0
 10
6.679572
 20
3.392088
 30
0.0
 10
6.676005
 20
3.393499
 30
0.0
 10
6.672793
 20
3.394910
 30
0.0
 10
6.669937
 20
3.396039
 30
0.0
 10
6.667425
 20
3.396886
 30
0.0
 10
6.665280
 20
3.397450
 30
0.0
 10
6.663474
 20
3.397679
 30
0.0
 10
6.662035
 20
3.397654
 30
0.0
 10
6.660934
 20
3.397380
 30
0.0
 10
6.660172
 20
3.396815
 30
0.0
 10
6.659749
 20
3.395969
 30
0.0
 10
6.659680
 20
3.394840
 30
0.0
 10
6.659953
 20
3.393711
 30
0.0
 10
6.660573
 20
3.392300
 30
0.0
 10
6.661533
 20
3.390606
 30
0.0
 10
6.662831
 20
3.388631
 30
0.0
 10
6.664468
 20
3.386373
 30
0.0
 10
6.666415
 20
3.384115
 30
0.0
 10
6.668701
 20
3.381575
 30
0.0
 10
6.671326
 20
3.378753
 30
0.0
 10
6.674281
 20
3.375705
 30
0.0
 10
6.677563
 20
3.372460
 30
0.0
 10
6.681173
 20
3.368988
 30
0.0
 10
6.685107
 20
3.365319
 30
0.0
 10
6.689366
 20
3.361453
 30
0.0
 10
6.693949
 20
3.357389
 30
0.0
 10
6.698851
 20
3.353127
 30
0.0
 10
6.704075
 20
3.348668
 30
0.0
 10
6.709615
 20
3.344012
 30
0.0
 10
6.715474
 20
3.339157
 30
0.0
 10
6.726080
 20
3.329477
 30
0.0
 10
6.736319
 20
3.318160
 30
0.0
 10
6.746171
 20
3.305375
 30
0.0
 10
6.755617
 20
3.291236
 30
0.0
 10
6.764637
 20
3.275911
 30
0.0
 10
6.773208
 20
3.259514
 30
0.0
 10
6.781314
 20
3.242186
 30
0.0
 10
6.788934
 20
3.224095
 30
0.0
 10
6.796049
 20
3.205356
 30
0.0
 10
6.802638
 20
3.186108
 30
0.0
 10
6.808684
 20
3.166522
 30
0.0
 10
6.814164
 20
3.146710
 30
0.0
 10
6.819061
 20
3.126813
 30
0.0
 10
6.823351
 20
3.106973
 30
0.0
 10
6.827017
 20
3.087330
 30
0.0
 10
6.830039
 20
3.068026
 30
0.0
 10
6.832410
 20
3.049202
 30
0.0
 10
6.834075
 20
3.030999
 30
0.0
 10
6.835035
 20
3.013558
 30
0.0
 10
6.835286
 20
2.996991
 30
0.0
 10
6.834806
 20
2.981469
 30
0.0
 10
6.833564
 20
2.967132
 30
0.0
 10
6.831532
 20
2.954093
 30
0.0
 10
6.828696
 20
2.942522
 30
0.0
 10
6.825038
 20
2.932560
 30
0.0
 10
6.820540
 20
2.924319
 30
0.0
 10
6.815180
 20
2.917969
 30
0.0
 10
6.808940
 20
2.913623
 30
0.0
 10
6.801797
 20
2.911365
 30
0.0
 10
6.793734
 20
2.911478
 30
0.0
 10
6.784731
 20
2.914018
 30
0.0
 10
6.774769
 20
2.919126
 30
0.0
 10
6.768972
 20
2.922146
 30
0.0
 10
6.763827
 20
2.923557
 30
0.0
 10
6.759348
 20
2.923280
 30
0.0
 10
6.755555
 20
2.921305
 30
0.0
 10
6.752462
 20
2.917382
 30
0.0
 10
6.750091
 20
2.911512
 30
0.0
 10
6.748454
 20
2.903609
 30
0.0
 10
6.747579
 20
2.893591
 30
0.0
 10
6.747464
 20
2.881370
 30
0.0
 10
6.748141
 20
2.866864
 30
0.0
 10
6.749609
 20
2.849959
 30
0.0
 10
6.751895
 20
2.830599
 30
0.0
 10
6.755030
 20
2.808670
 30
0.0
 10
6.759021
 20
2.784117
 30
0.0
 10
6.763884
 20
2.756826
 30
0.0
 10
6.769635
 20
2.726724
 30
0.0
 10
6.776293
 20
2.693724
 30
0.0
 10
6.783873
 20
2.657732
 30
0.0
 10
6.792394
 20
2.618667
 30
0.0
 10
6.801871
 20
2.576441
 30
0.0
 10
6.812324
 20
2.530969
 30
0.0
 10
6.823768
 20
2.482159
 30
0.0
 10
6.836223
 20
2.429928
 30
0.0
 10
6.849702
 20
2.374192
 30
0.0
 10
6.864222
 20
2.314857
 30
0.0
 10
6.879804
 20
2.251843
 30
0.0
 10
6.896460
 20
2.185058
 30
0.0
 10
6.914212
 20
2.114420
 30
0.0
 10
6.933076
 20
2.039840
 30
0.0
 10
6.953066
 20
1.961230
 30
0.0
 10
6.974201
 20
1.878508
 30
0.0
 10
6.996500
 20
1.791581
 30
0.0
 10
7.039524
 20
1.614813
 30
0.0
 10
7.077901
 20
1.437536
 30
0.0
 10
7.111642
 20
1.259820
 30
0.0
 10
7.140757
 20
1.081735
 30
0.0
 10
7.165260
 20
0.903354
 30
0.0
 10
7.185159
 20
0.724749
 30
0.0
 10
7.200467
 20
0.545993
 30
0.0
 10
7.211197
 20
0.367157
 30
0.0
 10
7.217358
 20
0.188313
 30
0.0
 10
7.218967
 20
0.009533
 30
0.0
 10
7.216023
 20
-0.169113
 30
0.0
 10
7.208544
 20
-0.347551
 30
0.0
 10
7.196544
 20
-0.525707
 30
0.0
 10
7.180031
 20
-0.703515
 30
0.0
 10
7.159017
 20
-0.880897
 30
0.0
 10
7.133513
 20
-1.057786
 30
0.0
 10
7.103531
 20
-1.234107
 30
0.0
 10
7.069082
 20
-1.409790
 30
0.0
 10
7.030178
 20
-1.584762
 30
0.0
 10
6.986830
 20
-1.758953
 30
0.0
 10
6.939049
 20
-1.932285
 30
0.0
 10
6.886845
 20
-2.104695
 30
0.0
 10
6.830232
 20
-2.276105
 30
0.0
 10
6.769219
 20
-2.446446
 30
0.0
 10
6.703818
 20
-2.615644
 30
0.0
 10
6.634041
 20
-2.783628
 30
0.0
 10
6.559899
 20
-2.950326
 30
0.0
 10
6.481402
 20
-3.115668
 30
0.0
 10
6.398563
 20
-3.279577
 30
0.0
 10
6.311392
 20
-3.441988
 30
0.0
 10
6.219901
 20
-3.602826
 30
0.0
 10
6.124101
 20
-3.762017
 30
0.0
 10
6.082721
 20
-3.826871
 30
0.0
 10
6.037326
 20
-3.894226
 30
0.0
 10
5.988134
 20
-3.963865
 30
0.0
 10
5.935361
 20
-4.035569
 30
0.0
 10
5.879224
 20
-4.109122
 30
0.0
 10
5.819942
 20
-4.184309
 30
0.0
 10
5.757730
 20
-4.260906
 30
0.0
 10
5.692807
 20
-4.338704
 30
0.0
 10
5.625389
 20
-4.417481
 30
0.0
 10
5.555694
 20
-4.497019
 30
0.0
 10
5.483939
 20
-4.577105
 30
0.0
 10
5.410340
 20
-4.657519
 30
0.0
 10
5.335116
 20
-4.738043
 30
0.0
 10
5.258483
 20
-4.818462
 30
0.0
 10
5.180658
 20
-4.898559
 30
0.0
 10
5.101859
 20
-4.978115
 30
0.0
 10
5.022302
 20
-5.056914
 30
0.0
 10
4.942206
 20
-5.134740
 30
0.0
 10
4.861786
 20
-5.211372
 30
0.0
 10
4.781261
 20
-5.286598
 30
0.0
 10
4.700847
 20
-5.360196
 30
0.0
 10
4.620762
 20
-5.431951
 30
0.0
 10
4.541223
 20
-5.501646
 30
0.0
 10
4.462446
 20
-5.569063
 30
0.0
 10
4.384650
 20
-5.633988
 30
0.0
 10
4.308051
 20
-5.696198
 30
0.0
 10
4.232866
 20
-5.755482
 30
0.0
 10
4.159313
 20
-5.811616
 30
0.0
 10
4.087609
 20
-5.864389
 30
0.0
 10
4.017970
 20
-5.913583
 30
0.0
 10
3.950615
 20
-5.958978
 30
0.0
 10
3.885760
 20
-6.000358
 30
0.0
 10
3.755703
 20
-6.078855
 30
0.0
 10
3.623714
 20
-6.154666
 30
0.0
 10
3.489893
 20
-6.227764
 30
0.0
 10
3.354341
 20
-6.298128
 30
0.0
 10
3.217160
 20
-6.365737
 30
0.0
 10
3.078449
 20
-6.430563
 30
0.0
 10
2.938310
 20
-6.492587
 30
0.0
 10
2.796844
 20
-6.551786
 30
0.0
 10
2.654150
 20
-6.608132
 30
0.0
 10
2.510331
 20
-6.661607
 30
0.0
 10
2.365487
 20
-6.712184
 30
0.0
 10
2.219718
 20
-6.759843
 30
0.0
 10
2.073126
 20
-6.804558
 30
0.0
 10
1.925812
 20
-6.846308
 30
0.0
 10
1.777875
 20
-6.885068
 30
0.0
 10
1.629418
 20
-6.920817
 30
0.0
 10
1.480540
 20
-6.953529
 30
0.0
 10
1.331343
 20
-6.983182
 30
0.0
 10
1.181927
 20
-7.009740
 30
0.0
 10
1.032393
 20
-7.033220
 30
0.0
 10
0.882843
 20
-7.053569
 30
0.0
 10
0.733376
 20
-7.070756
 30
0.0
 10
0.584094
 20
-7.084754
 30
0.0
 10
0.435097
 20
-7.095563
 30
0.0
 10
0.286487
 20
-7.103155
 30
0.0
 10
0.138363
 20
-7.107501
 30
0.0
 10
-0.009172
 20
-7.108630
 30
0.0
 10
-0.156019
 20
-7.106372
 30
0.0
 10
-0.302076
 20
-7.100841
 30
0.0
 10
-0.447243
 20
-7.091979
 30
0.0
 10
-0.591419
 20
-7.079759
 30
0.0
 10
-0.734503
 20
-7.064152
 30
0.0
 10
-0.734503
 20
-7.064152
 30
0.0
 10
-0.734503
 20
-7.064152
 30
0.0
 10
-0.734503
 20
-7.064152
 30
0.0
 10
-0.734503
 20
-7.064149
 30
0.0
 10
-0.734503
 20
-7.064149
 30
0.0
 10
-0.734503
 20
-7.064149
 30
0.0
 10
-0.734503
 20
-7.064149
 30
0.0
 10
-0.734503
 20
-7.064149
 30
0.0
 10
-0.734503
 20
-7.064149
 30
0.0
 10
-0.734503
 20
-7.064146
 30
0.0
 10
-0.734503
 20
-7.064146
 30
0.0
 10
-0.734503
 20
-7.064146
 30
0.0
 10
-0.734503
 20
-7.064146
 30
0.0
 10
-0.734503
 20
-7.064146
 30
0.0
 10
-0.734503
 20
-7.064146
 30
0.0
 10
-0.734503
 20
-7.064144
 30
0.0
 10
-0.734503
 20
-7.064144
 30
0.0
 10
-0.734503
 20
-7.064144
 30
0.0
 10
-0.734503
 20
-7.064144
 30
0.0
 10
-0.734503
 20
-7.064144
 30
0.0
 10
-0.734503
 20
-7.064144
 30
0.0
 10
-0.734503
 20
-7.064144
 30
0.0
 10
-0.734503
 20
-7.064141
 30
0.0
 10
-0.734503
 20
-7.064141
 30
0.0
 10
-0.734503
 20
-7.064141
 30
0.0
 10
-0.734503
 20
-7.064141
 30
0.0
 10
-0.734503
 20
-7.064141
 30
0.0
 10
-0.734503
 20
-7.064141
 30
0.0
 10
-0.734503
 20
-7.064138
 30
0.0
 10
-0.734503
 20
-7.064138
 30
0.0
 10
-0.734503
 20
-7.064138
 30
0.0
 10
-0.734460
 20
-7.064211
 30
0.0
  0
LWPOLYLINE
  5
101
100
AcDbEntity
  8
0
 62
7
100
AcDbPolyline
 90
673
 70
1
 10
1.565540
 20
-6.816829
 30
0.0
 10
1.713609
 20
-6.779805
 30
0.0
 10
1.860605
 20
-6.739935
 30
0.0
 10
2.006478
 20
-6.697249
 30
0.0
 10
2.151177
 20
-6.651777
 30
0.0
 10
2.294652
 20
-6.603551
 30
0.0
 10
2.436851
 20
-6.552605
 30
0.0
 10
2.577725
 20
-6.498965
 30
0.0
 10
2.717222
 20
-6.442668
 30
0.0
 10
2.855293
 20
-6.383740
 30
0.0
 10
2.991887
 20
-6.322215
 30
0.0
 10
3.126953
 20
-6.258125
 30
0.0
 10
3.260440
 20
-6.191498
 30
0.0
 10
3.392298
 20
-6.122371
 30
0.0
 10
3.522476
 20
-6.050768
 30
0.0
 10
3.650925
 20
-5.976724
 30
0.0
 10
3.777592
 20
-5.900270
 30
0.0
 10
3.902428
 20
-5.821440
 30
0.0
 10
4.025383
 20
-5.740259
 30
0.0
 10
4.146405
 20
-5.656763
 30
0.0
 10
4.265443
 20
-5.570982
 30
0.0
 10
4.382449
 20
-5.482946
 30
0.0
 10
4.497370
 20
-5.392688
 30
0.0
 10
4.610156
 20
-5.300238
 30
0.0
 10
4.720757
 20
-5.205628
 30
0.0
 10
4.829123
 20
-5.108891
 30
0.0
 10
4.935201
 20
-5.010054
 30
0.0
 10
5.038943
 20
-4.909151
 30
0.0
 10
5.140297
 20
-4.806211
 30
0.0
 10
5.239213
 20
-4.701269
 30
0.0
 10
5.335640
 20
-4.594352
 30
0.0
 10
5.429529
 20
-4.485496
 30
0.0
 10
5.520827
 20
-4.374727
 30
0.0
 10
5.574599
 20
-4.306629
 30
0.0
 10
5.628475
 20
-4.235763
 30
0.0
 10
5.682375
 20
-4.162287
 30
0.0
 10
5.736219
 20
-4.086355
 30
0.0
 10
5.789930
 20
-4.008131
 30
0.0
 10
5.843427
 20
-3.927771
 30
0.0
 10
5.896632
 20
-3.845436
 30
0.0
 10
5.949465
 20
-3.761280
 30
0.0
 10
6.001849
 20
-3.675467
 30
0.0
 10
6.053702
 20
-3.588151
 30
0.0
 10
6.104947
 20
-3.499493
 30
0.0
 10
6.155503
 20
-3.409654
 30
0.0
 10
6.205293
 20
-3.318787
 30
0.0
 10
6.254237
 20
-3.227053
 30
0.0
 10
6.302256
 20
-3.134611
 30
0.0
 10
6.349271
 20
-3.041622
 30
0.0
 10
6.395202
 20
-2.948240
 30
0.0
 10
6.439971
 20
-2.854627
 30
0.0
 10
6.483498
 20
-2.760938
 30
0.0
 10
6.525705
 20
-2.667336
 30
0.0
 10
6.566512
 20
-2.573980
 30
0.0
 10
6.605840
 20
-2.481021
 30
0.0
 10
6.643610
 20
-2.388627
 30
0.0
 10
6.679743
 20
-2.296950
 30
0.0
 10
6.714160
 20
-2.206154
 30
0.0
 10
6.746782
 20
-2.116393
 30
0.0
 10
6.777530
 20
-2.027826
 30
0.0
 10
6.806324
 20
-1.940614
 30
0.0
 10
6.833087
 20
-1.854914
 30
0.0
 10
6.857737
 20
-1.770885
 30
0.0
 10
6.880196
 20
-1.688688
 30
0.0
 10
6.900386
 20
-1.608478
 30
0.0
 10
6.926593
 20
-1.494649
 30
0.0
 10
6.950788
 20
-1.379655
 30
0.0
 10
6.972974
 20
-1.263565
 30
0.0
 10
6.993153
 20
-1.146460
 30
0.0
 10
7.011330
 20
-1.028412
 30
0.0
 10
7.027507
 20
-0.909498
 30
0.0
 10
7.041686
 20
-0.789793
 30
0.0
 10
7.053870
 20
-0.669372
 30
0.0
 10
7.064061
 20
-0.548313
 30
0.0
 10
7.072262
 20
-0.426686
 30
0.0
 10
7.078477
 20
-0.304571
 30
0.0
 10
7.082707
 20
-0.182045
 30
0.0
 10
7.084965
 20
-0.059176
 30
0.0
 10
7.085239
 20
0.063952
 30
0.0
 10
7.083546
 20
0.187269
 30
0.0
 10
7.079871
 20
0.310698
 30
0.0
 10
7.074229
 20
0.434165
 30
0.0
 10
7.066621
 20
0.557592
 30
0.0
 10
7.057048
 20
0.680906
 30
0.0
 10
7.045513
 20
0.804029
 30
0.0
 10
7.032023
 20
0.926888
 30
0.0
 10
7.016577
 20
1.049407
 30
0.0
 10
6.999178
 20
1.171510
 30
0.0
 10
6.979829
 20
1.293120
 30
0.0
 10
6.958535
 20
1.414165
 30
0.0
 10
6.935297
 20
1.534569
 30
0.0
 10
6.910117
 20
1.654254
 30
0.0
 10
6.883001
 20
1.773146
 30
0.0
 10
6.853949
 20
1.891171
 30
0.0
 10
6.822964
 20
2.008251
 30
0.0
 10
6.790050
 20
2.124312
 30
0.0
 10
6.755210
 20
2.239278
 30
0.0
 10
6.744051
 20
2.274759
 30
0.0
 10
6.733377
 20
2.308298
 30
0.0
 10
6.723161
 20
2.339941
 30
0.0
 10
6.713373
 20
2.369730
 30
0.0
 10
6.703987
 20
2.397698
 30
0.0
 10
6.694972
 20
2.423916
 30
0.0
 10
6.686302
 20
2.448385
 30
0.0
 10
6.677946
 20
2.471189
 30
0.0
 10
6.669877
 20
2.492355
 30
0.0
 10
6.662065
 20
2.511913
 30
0.0
 10
6.654482
 20
2.529919
 30
0.0
 10
6.647099
 20
2.546401
 30
0.0
 10
6.639888
 20
2.561415
 30
0.0
 10
6.632821
 20
2.575018
 30
0.0
 10
6.625867
 20
2.587210
 30
0.0
 10
6.619001
 20
2.598076
 30
0.0
 10
6.612191
 20
2.607643
 30
0.0
 10
6.605409
 20
2.615940
 30
0.0
 10
6.598627
 20
2.623024
 30
0.0
 10
6.591820
 20
2.628951
 30
0.0
 10
6.584954
 20
2.633749
 30
0.0
 10
6.578003
 20
2.637446
 30
0.0
 10
6.570939
 20
2.639986
 30
0.0
 10
6.563731
 20
2.641679
 30
0.0
 10
6.556350
 20
2.642243
 30
0.0
 10
6.548770
 20
2.642029
 30
0.0
 10
6.540964
 20
2.640900
 30
0.0
 10
6.532898
 20
2.638925
 30
0.0
 10
6.524547
 20
2.636102
 30
0.0
 10
6.515883
 20
2.632659
 30
0.0
 10
6.506874
 20
2.628511
 30
0.0
 10
6.497496
 20
2.623713
 30
0.0
 10
6.471777
 20
2.609319
 30
0.0
 10
6.446716
 20
2.593995
 30
0.0
 10
6.422301
 20
2.577739
 30
0.0
 10
6.398515
 20
2.560495
 30
0.0
 10
6.375350
 20
2.542263
 30
0.0
 10
6.352789
 20
2.523016
 30
0.0
 10
6.330821
 20
2.502724
 30
0.0
 10
6.309431
 20
2.481360
 30
0.0
 10
6.288606
 20
2.458895
 30
0.0
 10
6.268331
 20
2.435329
 30
0.0
 10
6.248596
 20
2.410607
 30
0.0
 10
6.229385
 20
2.384727
 30
0.0
 10
6.210687
 20
2.357662
 30
0.0
 10
6.192490
 20
2.329366
 30
0.0
 10
6.174778
 20
2.299832
 30
0.0
 10
6.157537
 20
2.269030
 30
0.0
 10
6.140756
 20
2.236941
 30
0.0
 10
6.124421
 20
2.203535
 30
0.0
 10
6.108517
 20
2.168793
 30
0.0
 10
6.093035
 20
2.132686
 30
0.0
 10
6.077958
 20
2.095192
 30
0.0
 10
6.063274
 20
2.056285
 30
0.0
 10
6.048971
 20
2.015944
 30
0.0
 10
6.035032
 20
1.974139
 30
0.0
 10
6.021446
 20
1.930849
 30
0.0
 10
6.008202
 20
1.886049
 30
0.0
 10
5.995284
 20
1.839716
 30
0.0
 10
5.982680
 20
1.791823
 30
0.0
 10
5.970375
 20
1.742344
 30
0.0
 10
5.958358
 20
1.691259
 30
0.0
 10
5.946615
 20
1.638543
 30
0.0
 10
5.935131
 20
1.584167
 30
0.0
 10
5.921700
 20
1.520241
 30
0.0
 10
5.907745
 20
1.456459
 30
0.0
 10
5.893289
 20
1.392891
 30
0.0
 10
5.878360
 20
1.329608
 30
0.0
 10
5.862981
 20
1.266681
 30
0.0
 10
5.847177
 20
1.204183
 30
0.0
 10
5.830972
 20
1.142184
 30
0.0
 10
5.814391
 20
1.080753
 30
0.0
 10
5.797458
 20
1.019962
 30
0.0
 10
5.780200
 20
0.959883
 30
0.0
 10
5.762640
 20
0.900585
 30
0.0
 10
5.744804
 20
0.842140
 30
0.0
 10
5.726716
 20
0.784617
 30
0.0
 10
5.708400
 20
0.728088
 30
0.0
 10
5.689883
 20
0.672626
 30
0.0
 10
5.671189
 20
0.618301
 30
0.0
 10
5.652339
 20
0.565181
 30
0.0
 10
5.633362
 20
0.513340
 30
0.0
 10
5.614281
 20
0.462847
 30
0.0
 10
5.595124
 20
0.413774
 30
0.0
 10
5.575913
 20
0.366192
 30
0.0
 10
5.556671
 20
0.320170
 30
0.0
 10
5.537427
 20
0.275779
 30
0.0
 10
5.518202
 20
0.233093
 30
0.0
 10
5.499022
 20
0.192179
 30
0.0
 10
5.479913
 20
0.153114
 30
0.0
 10
5.460896
 20
0.115959
 30
0.0
 10
5.442002
 20
0.080795
 30
0.0
 10
5.423251
 20
0.047687
 30
0.0
 10
5.404669
 20
0.016708
 30
0.0
 10
5.386280
 20
-0.012073
 30
0.0
 10
5.368110
 20
-0.038574
 30
0.0
 10
5.349958
 20
-0.063099
 30
0.0
 10
5.330956
 20
-0.086862
 30
0.0
 10
5.311073
 20
-0.109892
 30
0.0
 10
5.290276
 20
-0.132187
 30
0.0
 10
5.268534
 20
-0.153749
 30
0.0
 10
5.245818
 20
-0.174605
 30
0.0
 10
5.222094
 20
-0.194784
 30
0.0
 10
5.197332
 20
-0.214286
 30
0.0
 10
5.171500
 20
-0.233110
 30
0.0
 10
5.144568
 20
-0.251285
 30
0.0
 10
5.116503
 20
-0.268811
 30
0.0
 10
5.087275
 20
-0.285716
 30
0.0
 10
5.056852
 20
-0.302000
 30
0.0
 10
5.025203
 20
-0.317692
 30
0.0
 10
4.992297
 20
-0.332791
 30
0.0
 10
4.958102
 20
-0.347297
 30
0.0
 10
4.922588
 20
-0.361239
 30
0.0
 10
4.885722
 20
-0.374644
 30
0.0
 10
4.847474
 20
-0.387485
 30
0.0
 10
4.807812
 20
-0.399819
 30
0.0
 10
4.766705
 20
-0.411615
 30
0.0
 10
4.724122
 20
-0.422933
 30
0.0
 10
4.680031
 20
-0.433742
 30
0.0
 10
4.634402
 20
-0.444099
 30
0.0
 10
4.587202
 20
-0.453977
 30
0.0
 10
4.538401
 20
-0.463403
 30
0.0
 10
4.487968
 20
-0.472406
 30
0.0
 10
4.435870
 20
-0.480986
 30
0.0
 10
4.382078
 20
-0.489142
 30
0.0
 10
4.326558
 20
-0.496903
 30
0.0
 10
4.269281
 20
-0.504269
 30
0.0
 10
4.210215
 20
-0.511268
 30
0.0
 10
4.154843
 20
-0.516997
 30
0.0
 10
4.096712
 20
-0.521964
 30
0.0
 10
4.036028
 20
-0.526169
 30
0.0
 10
3.972998
 20
-0.529613
 30
0.0
 10
3.907826
 20
-0.532435
 30
0.0
 10
3.840720
 20
-0.534410
 30
0.0
 10
3.771886
 20
-0.535821
 30
0.0
 10
3.701529
 20
-0.536386
 30
0.0
 10
3.629856
 20
-0.536301
 30
0.0
 10
3.557072
 20
-0.535455
 30
0.0
 10
3.483384
 20
-0.534043
 30
0.0
 10
3.408998
 20
-0.532068
 30
0.0
 10
3.334119
 20
-0.529528
 30
0.0
 10
3.258955
 20
-0.526226
 30
0.0
 10
3.183710
 20
-0.522331
 30
0.0
 10
3.108592
 20
-0.517844
 30
0.0
 10
3.033806
 20
-0.512792
 30
0.0
 10
2.959558
 20
-0.507176
 30
0.0
 10
2.886054
 20
-0.500995
 30
0.0
 10
2.813501
 20
-0.494278
 30
0.0
 10
2.742104
 20
-0.487053
 30
0.0
 10
2.672069
 20
-0.479292
 30
0.0
 10
2.603603
 20
-0.471051
 30
0.0
 10
2.536912
 20
-0.462331
 30
0.0
 10
2.472202
 20
-0.453130
 30
0.0
 10
2.409678
 20
-0.443478
 30
0.0
 10
2.349547
 20
-0.433375
 30
0.0
 10
2.292015
 20
-0.422848
 30
0.0
 10
2.237288
 20
-0.411898
 30
0.0
 10
2.185572
 20
-0.400524
 30
0.0
 10
2.137073
 20
-0.388755
 30
0.0
 10
2.091998
 20
-0.376620
 30
0.0
 10
2.040466
 20
-0.360251
 30
0.0
 10
1.989510
 20
-0.340637
 30
0.0
 10
1.939149
 20
-0.317805
 30
0.0
 10
1.889402
 20
-0.291784
 30
0.0
 10
1.840289
 20
-0.262602
 30
0.0
 10
1.791829
 20
-0.230296
 30
0.0
 10
1.744043
 20
-0.194900
 30
0.0
 10
1.696949
 20
-0.156436
 30
0.0
 10
1.650567
 20
-0.114943
 30
0.0
 10
1.604917
 20
-0.070445
 30
0.0
 10
1.560018
 20
-0.022979
 30
0.0
 10
1.515890
 20
0.027432
 30
0.0
 10
1.472552
 20
0.080749
 30
0.0
 10
1.430024
 20
0.136948
 30
0.0
 10
1.388326
 20
0.195995
 30
0.0
 10
1.347476
 20
0.257861
 30
0.0
 10
1.307495
 20
0.322515
 30
0.0
 10
1.268401
 20
0.389927
 30
0.0
 10
1.230216
 20
0.460065
 30
0.0
 10
1.192957
 20
0.532898
 30
0.0
 10
1.156645
 20
0.608398
 30
0.0
 10
1.121299
 20
0.686531
 30
0.0
 10
1.086939
 20
0.767269
 30
0.0
 10
1.053584
 20
0.850581
 30
0.0
 10
1.021254
 20
0.936439
 30
0.0
 10
0.989969
 20
1.024805
 30
0.0
 10
0.959747
 20
1.115655
 30
0.0
 10
0.930608
 20
1.208955
 30
0.0
 10
0.902573
 20
1.304677
 30
0.0
 10
0.875660
 20
1.402788
 30
0.0
 10
0.849890
 20
1.503262
 30
0.0
 10
0.825280
 20
1.606062
 30
0.0
 10
0.808731
 20
1.676321
 30
0.0
 10
0.792345
 20
1.743013
 30
0.0
 10
0.776047
 20
1.806211
 30
0.0
 10
0.759765
 20
1.865997
 30
0.0
 10
0.743425
 20
1.922447
 30
0.0
 10
0.726951
 20
1.975643
 30
0.0
 10
0.710269
 20
2.025661
 30
0.0
 10
0.693308
 20
2.072581
 30
0.0
 10
0.675990
 20
2.116480
 30
0.0
 10
0.658244
 20
2.157439
 30
0.0
 10
0.639996
 20
2.195534
 30
0.0
 10
0.621172
 20
2.230845
 30
0.0
 10
0.601698
 20
2.263450
 30
0.0
 10
0.581502
 20
2.293425
 30
0.0
 10
0.560508
 20
2.320857
 30
0.0
 10
0.538641
 20
2.345806
 30
0.0
 10
0.515829
 20
2.368383
 30
0.0
 10
0.491998
 20
2.388647
 30
0.0
 10
0.467075
 20
2.406681
 30
0.0
 10
0.440984
 20
2.422542
 30
0.0
 10
0.413651
 20
2.436343
 30
0.0
 10
0.385004
 20
2.448139
 30
0.0
 10
0.354969
 20
2.458017
 30
0.0
 10
0.323472
 20
2.466032
 30
0.0
 10
0.290438
 20
2.472298
 30
0.0
 10
0.255795
 20
2.476870
 30
0.0
 10
0.219467
 20
2.479833
 30
0.0
 10
0.181382
 20
2.481244
 30
0.0
 10
0.141465
 20
2.481241
 30
0.0
 10
0.099642
 20
2.479830
 30
0.0
 10
0.055841
 20
2.477290
 30
0.0
 10
0.009986
 20
2.473424
 30
0.0
 10
-0.008376
 20
2.471448
 30
0.0
 10
-0.026582
 20
2.469190
 30
0.0
 10
-0.044621
 20
2.466933
 30
0.0
 10
-0.062480
 20
2.464393
 30
0.0
 10
-0.080145
 20
2.461570
 30
0.0
 10
-0.097600
 20
2.458522
 30
0.0
 10
-0.114836
 20
2.455277
 30
0.0
 10
-0.131834
 20
2.451806
 30
0.0
 10
-0.148584
 20
2.448108
 30
0.0
 10
-0.165071
 20
2.444214
 30
0.0
 10
-0.181279
 20
2.440122
 30
0.0
 10
-0.197196
 20
2.435832
 30
0.0
 10
-0.212809
 20
2.431344
 30
0.0
 10
-0.228105
 20
2.426688
 30
0.0
 10
-0.243069
 20
2.421862
 30
0.0
 10
-0.257685
 20
2.416838
 30
0.0
 10
-0.271943
 20
2.411645
 30
0.0
 10
-0.285828
 20
2.406283
 30
0.0
 10
-0.299324
 20
2.400780
 30
0.0
 10
-0.312419
 20
2.395107
 30
0.0
 10
-0.325102
 20
2.389293
 30
0.0
 10
-0.337356
 20
2.383338
 30
0.0
 10
-0.349167
 20
2.377242
 30
0.0
 10
-0.360524
 20
2.371005
 30
0.0
 10
-0.371409
 20
2.364627
 30
0.0
 10
-0.381812
 20
2.358136
 30
0.0
 10
-0.391718
 20
2.351532
 30
0.0
 10
-0.401110
 20
2.344787
 30
0.0
 10
-0.409981
 20
2.337929
 30
0.0
 10
-0.418312
 20
2.330986
 30
0.0
 10
-0.426090
 20
2.323931
 30
0.0
 10
-0.433304
 20
2.316762
 30
0.0
 10
-0.439812
 20
2.309368
 30
0.0
 10
-0.446582
 20
2.300478
 30
0.0
 10
-0.453601
 20
2.290149
 30
0.0
 10
-0.460851
 20
2.278408
 30
0.0
 10
-0.468319
 20
2.265313
 30
0.0
 10
-0.475987
 20
2.250892
 30
0.0
 10
-0.483841
 20
2.235200
 30
0.0
 10
-0.491867
 20
2.218267
 30
0.0
 10
-0.500049
 20
2.200148
 30
0.0
 10
-0.508372
 20
2.180872
 30
0.0
 10
-0.516819
 20
2.160496
 30
0.0
 10
-0.525376
 20
2.139075
 30
0.0
 10
-0.534029
 20
2.116638
 30
0.0
 10
-0.542763
 20
2.093242
 30
0.0
 10
-0.551560
 20
2.068915
 30
0.0
 10
-0.560408
 20
2.043712
 30
0.0
 10
-0.569290
 20
2.017663
 30
0.0
 10
-0.578191
 20
1.990824
 30
0.0
 10
-0.587095
 20
1.963251
 30
0.0
 10
-0.595988
 20
1.934964
 30
0.0
 10
-0.604855
 20
1.906013
 30
0.0
 10
-0.613680
 20
1.876448
 30
0.0
 10
-0.622449
 20
1.846309
 30
0.0
 10
-0.631147
 20
1.815643
 30
0.0
 10
-0.639758
 20
1.784494
 30
0.0
 10
-0.648264
 20
1.752902
 30
0.0
 10
-0.656654
 20
1.720912
 30
0.0
 10
-0.664912
 20
1.688572
 30
0.0
 10
-0.673020
 20
1.655922
 30
0.0
 10
-0.680965
 20
1.623006
 30
0.0
 10
-0.688732
 20
1.589871
 30
0.0
 10
-0.696304
 20
1.556557
 30
0.0
 10
-0.718661
 20
1.459258
 30
0.0
 10
-0.741544
 20
1.364886
 30
0.0
 10
-0.764974
 20
1.273395
 30
0.0
 10
-0.788977
 20
1.184752
 30
0.0
 10
-0.813573
 20
1.098914
 30
0.0
 10
-0.838786
 20
1.015842
 30
0.0
 10
-0.864638
 20
0.935502
 30
0.0
 10
-0.891153
 20
0.857848
 30
0.0
 10
-0.918353
 20
0.782845
 30
0.0
 10
-0.946262
 20
0.710452
 30
0.0
 10
-0.974904
 20
0.640630
 30
0.0
 10
-1.004300
 20
0.573343
 30
0.0
 10
-1.034473
 20
0.508548
 30
0.0
 10
-1.065446
 20
0.446207
 30
0.0
 10
-1.097243
 20
0.386283
 30
0.0
 10
-1.129887
 20
0.328735
 30
0.0
 10
-1.163399
 20
0.273524
 30
0.0
 10
-1.197804
 20
0.220610
 30
0.0
 10
-1.233124
 20
0.169957
 30
0.0
 10
-1.269382
 20
0.121522
 30
0.0
 10
-1.306601
 20
0.075266
 30
0.0
 10
-1.344804
 20
0.031155
 30
0.0
 10
-1.384014
 20
-0.010857
 30
0.0
 10
-1.424254
 20
-0.050803
 30
0.0
 10
-1.465547
 20
-0.088725
 30
0.0
 10
-1.507915
 20
-0.124663
 30
0.0
 10
-1.551382
 20
-0.158654
 30
0.0
 10
-1.595970
 20
-0.190737
 30
0.0
 10
-1.641704
 20
-0.220955
 30
0.0
 10
-1.688605
 20
-0.249343
 30
0.0
 10
-1.736696
 20
-0.275957
 30
0.0
 10
-1.786000
 20
-0.300792
 30
0.0
 10
-1.850112
 20
-0.329037
 30
0.0
 10
-1.920883
 20
-0.355510
 30
0.0
 10
-1.997859
 20
-0.380204
 30
0.0
 10
-2.080588
 20
-0.403121
 30
0.0
 10
-2.168615
 20
-0.424231
 30
0.0
 10
-2.261488
 20
-0.443563
 30
0.0
 10
-2.358754
 20
-0.461117
 30
0.0
 10
-2.459960
 20
-0.476893
 30
0.0
 10
-2.564651
 20
-0.490863
 30
0.0
 10
-2.672375
 20
-0.503027
 30
0.0
 10
-2.782679
 20
-0.513413
 30
0.0
 10
-2.895109
 20
-0.521993
 30
0.0
 10
-3.009213
 20
-0.528794
 30
0.0
 10
-3.124536
 20
-0.533789
 30
0.0
 10
-3.240626
 20
-0.536979
 30
0.0
 10
-3.357030
 20
-0.538390
 30
0.0
 10
-3.473294
 20
-0.538107
 30
0.0
 10
-3.588964
 20
-0.535850
 30
0.0
 10
-3.703589
 20
-0.531814
 30
0.0
 10
-3.816715
 20
-0.525972
 30
0.0
 10
-3.927887
 20
-0.518324
 30
0.0
 10
-4.036654
 20
-0.508841
 30
0.0
 10
-4.142562
 20
-0.497552
 30
0.0
 10
-4.245157
 20
-0.484429
 30
0.0
 10
-4.343987
 20
-0.469499
 30
0.0
 10
-4.438598
 20
-0.452735
 30
0.0
 10
-4.528537
 20
-0.434165
 30
0.0
 10
-4.613350
 20
-0.413760
 30
0.0
 10
-4.692585
 20
-0.391521
 30
0.0
 10
-4.765789
 20
-0.367448
 30
0.0
 10
-4.832507
 20
-0.341540
 30
0.0
 10
-4.892288
 20
-0.313797
 30
0.0
 10
-4.923069
 20
-0.296949
 30
0.0
 10
-4.953559
 20
-0.277983
 30
0.0
 10
-4.983751
 20
-0.256901
 30
0.0
 10
-5.013639
 20
-0.233703
 30
0.0
 10
-5.043217
 20
-0.208415
 30
0.0
 10
-5.072480
 20
-0.181040
 30
0.0
 10
-5.101420
 20
-0.151601
 30
0.0
 10
-5.130033
 20
-0.120102
 30
0.0
 10
-5.158311
 20
-0.086558
 30
0.0
 10
-5.186251
 20
-0.050975
 30
0.0
 10
-5.213844
 20
-0.013366
 30
0.0
 10
-5.241084
 20
0.026255
 30
0.0
 10
-5.267969
 20
0.067877
 30
0.0
 10
-5.294489
 20
0.111492
 30
0.0
 10
-5.320640
 20
0.157088
 30
0.0
 10
-5.346415
 20
0.204651
 30
0.0
 10
-5.371807
 20
0.254169
 30
0.0
 10
-5.396812
 20
0.305633
 30
0.0
 10
-5.421421
 20
0.359032
 30
0.0
 10
-5.445633
 20
0.414353
 30
0.0
 10
-5.469439
 20
0.471588
 30
0.0
 10
-5.492832
 20
0.530719
 30
0.0
 10
-5.515808
 20
0.591741
 30
0.0
 10
-5.538360
 20
0.654640
 30
0.0
 10
-5.560484
 20
0.719404
 30
0.0
 10
-5.582170
 20
0.786026
 30
0.0
 10
-5.603415
 20
0.854487
 30
0.0
 10
-5.624212
 20
0.924780
 30
0.0
 10
-5.644555
 20
0.996894
 30
0.0
 10
-5.664437
 20
1.070819
 30
0.0
 10
-5.683854
 20
1.146539
 30
0.0
 10
-5.702800
 20
1.224046
 30
0.0
 10
-5.724285
 20
1.313970
 30
0.0
 10
-5.744577
 20
1.398547
 30
0.0
 10
-5.763771
 20
1.477998
 30
0.0
 10
-5.781960
 20
1.552547
 30
0.0
 10
-5.799241
 20
1.622419
 30
0.0
 10
-5.815708
 20
1.687836
 30
0.0
 10
-5.831456
 20
1.749024
 30
0.0
 10
-5.846581
 20
1.806202
 30
0.0
 10
-5.861177
 20
1.859602
 30
0.0
 10
-5.875339
 20
1.909439
 30
0.0
 10
-5.889162
 20
1.955944
 30
0.0
 10
-5.902743
 20
1.999333
 30
0.0
 10
-5.916174
 20
2.039837
 30
0.0
 10
-5.929551
 20
2.077675
 30
0.0
 10
-5.942971
 20
2.113071
 30
0.0
 10
-5.956526
 20
2.146252
 30
0.0
 10
-5.970313
 20
2.177438
 30
0.0
 10
-5.984424
 20
2.206854
 30
0.0
 10
-5.998958
 20
2.234709
 30
0.0
 10
-6.014009
 20
2.261266
 30
0.0
 10
-6.029670
 20
2.286722
 30
0.0
 10
-6.046038
 20
2.311304
 30
0.0
 10
-6.063206
 20
2.335236
 30
0.0
 10
-6.081271
 20
2.358746
 30
0.0
 10
-6.100327
 20
2.382029
 30
0.0
 10
-6.120469
 20
2.405340
 30
0.0
 10
-6.141794
 20
2.428878
 30
0.0
 10
-6.164394
 20
2.452895
 30
0.0
 10
-6.188366
 20
2.477618
 30
0.0
 10
-6.213805
 20
2.503243
 30
0.0
 10
-6.240806
 20
2.529998
 30
0.0
 10
-6.269462
 20
2.558107
 30
0.0
 10
-6.285086
 20
2.573319
 30
0.0
 10
-6.300405
 20
2.588051
 30
0.0
 10
-6.315402
 20
2.602275
 30
0.0
 10
-6.330061
 20
2.616019
 30
0.0
 10
-6.344361
 20
2.629227
 30
0.0
 10
-6.358289
 20
2.641927
 30
0.0
 10
-6.371827
 20
2.654091
 30
0.0
 10
-6.384956
 20
2.665690
 30
0.0
 10
-6.397662
 20
2.676725
 30
0.0
 10
-6.409927
 20
2.687196
 30
0.0
 10
-6.421735
 20
2.697074
 30
0.0
 10
-6.433066
 20
2.706359
 30
0.0
 10
-6.443907
 20
2.715051
 30
0.0
 10
-6.454239
 20
2.723123
 30
0.0
 10
-6.464043
 20
2.730545
 30
0.0
 10
-6.473306
 20
2.737318
 30
0.0
 10
-6.482009
 20
2.743443
 30
0.0
 10
-6.490135
 20
2.748890
 30
0.0
 10
-6.497667
 20
2.753659
 30
0.0
 10
-6.504590
 20
2.757723
 30
0.0
 10
-6.510886
 20
2.761082
 30
0.0
 10
-6.516537
 20
2.763622
 30
0.0
 10
-6.521526
 20
2.765597
 30
0.0
 10
-6.525836
 20
2.766726
 30
0.0
 10
-6.529451
 20
2.767008
 30
0.0
 10
-6.532355
 20
2.766726
 30
0.0
 10
-6.534528
 20
2.765597
 30
0.0
 10
-6.535968
 20
2.763622
 30
0.0
 10
-6.536645
 20
2.760799
 30
0.0
 10
-6.536530
 20
2.757243
 30
0.0
 10
-6.535627
 20
2.752869
 30
0.0
 10
-6.533906
 20
2.747648
 30
0.0
 10
-6.532015
 20
2.741298
 30
0.0
 10
-6.530575
 20
2.733593
 30
0.0
 10
-6.529588
 20
2.724562
 30
0.0
 10
-6.529051
 20
2.714261
 30
0.0
 10
-6.528950
 20
2.702718
 30
0.0
 10
-6.529288
 20
2.689990
 30
0.0
 10
-6.530050
 20
2.676133
 30
0.0
 10
-6.531208
 20
2.661147
 30
0.0
 10
-6.532788
 20
2.645116
 30
0.0
 10
-6.534764
 20
2.628042
 30
0.0
 10
-6.537134
 20
2.610008
 30
0.0
 10
-6.539872
 20
2.591043
 30
0.0
 10
-6.542982
 20
2.571174
 30
0.0
 10
-6.546456
 20
2.550459
 30
0.0
 10
-6.550286
 20
2.528926
 30
0.0
 10
-6.554463
 20
2.506630
 30
0.0
 10
-6.558981
 20
2.483629
 30
0.0
 10
-6.563830
 20
2.459950
 30
0.0
 10
-6.569003
 20
2.435623
 30
0.0
 10
-6.574492
 20
2.410703
 30
0.0
 10
-6.580286
 20
2.385218
 30
0.0
 10
-6.586379
 20
2.359254
 30
0.0
 10
-6.592763
 20
2.332809
 30
0.0
 10
-6.599429
 20
2.305942
 30
0.0
 10
-6.606369
 20
2.278707
 30
0.0
 10
-6.613577
 20
2.251134
 30
0.0
 10
-6.621042
 20
2.223251
 30
0.0
 10
-6.628755
 20
2.195113
 30
0.0
 10
-6.636711
 20
2.166778
 30
0.0
 10
-6.644901
 20
2.138276
 30
0.0
 10
-6.653314
 20
2.109651
 30
0.0
 10
-6.661944
 20
2.080943
 30
0.0
 10
-6.765680
 20
1.703293
 30
0.0
 10
-6.847644
 20
1.325581
 30
0.0
 10
-6.908231
 20
0.948444
 30
0.0
 10
-6.947833
 20
0.572519
 30
0.0
 10
-6.966844
 20
0.198442
 30
0.0
 10
-6.965658
 20
-0.173149
 30
0.0
 10
-6.944670
 20
-0.541615
 30
0.0
 10
-6.904270
 20
-0.906320
 30
0.0
 10
-6.844853
 20
-1.266625
 30
0.0
 10
-6.766813
 20
-1.621897
 30
0.0
 10
-6.670542
 20
-1.971492
 30
0.0
 10
-6.556436
 20
-2.314778
 30
0.0
 10
-6.424886
 20
-2.651117
 30
0.0
 10
-6.276286
 20
-2.979866
 30
0.0
 10
-6.111031
 20
-3.300394
 30
0.0
 10
-5.929512
 20
-3.612063
 30
0.0
 10
-5.732125
 20
-3.914233
 30
0.0
 10
-5.519261
 20
-4.206265
 30
0.0
 10
-5.291315
 20
-4.487528
 30
0.0
 10
-5.048681
 20
-4.757378
 30
0.0
 10
-4.791751
 20
-5.015182
 30
0.0
 10
-4.520919
 20
-5.260300
 30
0.0
 10
-4.236578
 20
-5.492095
 30
0.0
 10
-3.939122
 20
-5.709934
 30
0.0
 10
-3.628945
 20
-5.913171
 30
0.0
 10
-3.306440
 20
-6.101176
 30
0.0
 10
-2.972000
 20
-6.273309
 30
0.0
 10
-2.626019
 20
-6.428932
 30
0.0
 10
-2.268889
 20
-6.567407
 30
0.0
 10
-1.901006
 20
-6.688099
 30
0.0
 10
-1.522762
 20
-6.790368
 30
0.0
 10
-1.134551
 20
-6.873579
 30
0.0
 10
-1.070651
 20
-6.884670
 30
0.0
 10
-1.002588
 20
-6.894886
 30
0.0
 10
-0.930644
 20
-6.904200
 30
0.0
 10
-0.855105
 20
-6.912638
 30
0.0
 10
-0.776254
 20
-6.920230
 30
0.0
 10
-0.694376
 20
-6.926947
 30
0.0
 10
-0.609755
 20
-6.932817
 30
0.0
 10
-0.522676
 20
-6.937841
 30
0.0
 10
-0.433422
 20
-6.942018
 30
0.0
 10
-0.342280
 20
-6.945348
 30
0.0
 10
-0.249531
 20
-6.947888
 30
0.0
 10
-0.155462
 20
-6.949581
 30
0.0
 10
-0.060356
 20
-6.950428
 30
0.0
 10
0.035502
 20
-6.950453
 30
0.0
 10
0.131828
 20
-6.949607
 30
0.0
 10
0.228338
 20
-6.947913
 30
0.0
 10
0.324747
 20
-6.945655
 30
0.0
 10
0.420772
 20
-6.942466
 30
0.0
 10
0.516126
 20
-6.938515
 30
0.0
 10
0.610527
 20
-6.933774
 30
0.0
 10
0.703690
 20
-6.928242
 30
0.0
 10
0.795331
 20
-6.921949
 30
0.0
 10
0.885165
 20
-6.914893
 30
0.0
 10
0.972908
 20
-6.907076
 30
0.0
 10
1.058275
 20
-6.898524
 30
0.0
 10
1.140983
 20
-6.889211
 30
0.0
 10
1.220746
 20
-6.879164
 30
0.0
 10
1.297281
 20
-6.868383
 30
0.0
 10
1.370303
 20
-6.856868
 30
0.0
 10
1.439528
 20
-6.844648
 30
0.0
 10
1.504672
 20
-6.831694
 30
0.0
 10
1.565449
 20
-6.818035
 30
0.0
 10
1.565449
 20
-6.818035
 30
0.0
 10
1.565449
 20
-6.818035
 30
0.0
 10
1.565449
 20
-6.818035
 30
0.0
 10
1.565449
 20
-6.818035
 30
0.0
 10
1.565449
 20
-6.818032
 30
0.0
 10
1.565449
 20
-6.818032
 30
0.0
 10
1.565449
 20
-6.818032
 30
0.0
 10
1.565449
 20
-6.818032
 30
0.0
 10
1.565449
 20
-6.818032
 30
0.0
 10
1.565449
 20
-6.818032
 30
0.0
 10
1.565449
 20
-6.818032
 30
0.0
 10
1.565449
 20
-6.818032
 30
0.0
 10
1.565449
 20
-6.818029
 30
0.0
 10
1.565449
 20
-6.818029
 30
0.0
 10
1.565449
 20
-6.818029
 30
0.0
 10
1.565449
 20
-6.818029
 30
0.0
 10
1.565449
 20
-6.818029
 30
0.0
 10
1.565449
 20
-6.818029
 30
0.0
 10
1.565449
 20
-6.818029
 30
0.0
 10
1.565449
 20
-6.818026
 30
0.0
 10
1.565449
 20
-6.818026
 30
0.0
 10
1.565449
 20
-6.818026
 30
0.0
 10
1.565449
 20
-6.818026
 30
0.0
 10
1.565449
 20
-6.818026
 30
0.0
 10
1.565449
 20
-6.818026
 30
0.0
 10
1.565449
 20
-6.818026
 30
0.0
 10
1.565449
 20
-6.818026
 30
0.0
 10
1.565449
 20
-6.818023
 30
0.0
 10
1.565449
 20
-6.818023
 30
0.0
 10
1.565449
 20
-6.818023
 30
0.0
 10
1.565449
 20
-6.818023
 30
0.0
 10
1.565540
 20
-6.816829
 30
0.0
  0
LWPOLYLINE
  5
102
100
AcDbEntity
  8
0
 62
7
100
AcDbPolyline
 90
353
 70
1
 10
-0.754537
 20
-4.412573
 30
0.0
 10
-0.837976
 20
-4.395498
 30
0.0
 10
-0.922265
 20
-4.375856
 30
0.0
 10
-1.007288
 20
-4.353729
 30
0.0
 10
-1.092930
 20
-4.329176
 30
0.0
 10
-1.179076
 20
-4.302252
 30
0.0
 10
-1.265611
 20
-4.273045
 30
0.0
 10
-1.352419
 20
-4.241614
 30
0.0
 10
-1.439386
 20
-4.208024
 30
0.0
 10
-1.526397
 20
-4.172348
 30
0.0
 10
-1.613336
 20
-4.134654
 30
0.0
 10
-1.700088
 20
-4.095005
 30
0.0
 10
-1.786538
 20
-4.053470
 30
0.0
 10
-1.872572
 20
-4.010121
 30
0.0
 10
-1.958073
 20
-3.965019
 30
0.0
 10
-2.042927
 20
-3.918235
 30
0.0
 10
-2.127020
 20
-3.869840
 30
0.0
 10
-2.210234
 20
-3.819895
 30
0.0
 10
-2.292456
 20
-3.768471
 30
0.0
 10
-2.373570
 20
-3.715639
 30
0.0
 10
-2.453461
 20
-3.661461
 30
0.0
 10
-2.532015
 20
-3.606007
 30
0.0
 10
-2.609115
 20
-3.549342
 30
0.0
 10
-2.684648
 20
-3.491540
 30
0.0
 10
-2.758497
 20
-3.432663
 30
0.0
 10
-2.830548
 20
-3.372781
 30
0.0
 10
-2.900685
 20
-3.311962
 30
0.0
 10
-2.968794
 20
-3.250274
 30
0.0
 10
-3.034759
 20
-3.187782
 30
0.0
 10
-3.098465
 20
-3.124556
 30
0.0
 10
-3.159798
 20
-3.060660
 30
0.0
 10
-3.218641
 20
-2.996167
 30
0.0
 10
-3.274880
 20
-2.931143
 30
0.0
 10
-3.311817
 20
-2.887040
 30
0.0
 10
-3.346755
 20
-2.844913
 30
0.0
 10
-3.379721
 20
-2.804699
 30
0.0
 10
-3.410745
 20
-2.766337
 30
0.0
 10
-3.439853
 20
-2.729758
 30
0.0
 10
-3.467074
 20
-2.694900
 30
0.0
 10
-3.492437
 20
-2.661706
 30
0.0
 10
-3.515969
 20
-2.630102
 30
0.0
 10
-3.537700
 20
-2.600029
 30
0.0
 10
-3.557656
 20
-2.571423
 30
0.0
 10
-3.575868
 20
-2.544216
 30
0.0
 10
-3.592361
 20
-2.518365
 30
0.0
 10
-3.607166
 20
-2.493783
 30
0.0
 10
-3.620309
 20
-2.470415
 30
0.0
 10
-3.631818
 20
-2.448176
 30
0.0
 10
-3.641724
 20
-2.427038
 30
0.0
 10
-3.650053
 20
-2.406915
 30
0.0
 10
-3.656832
 20
-2.387752
 30
0.0
 10
-3.662092
 20
-2.369464
 30
0.0
 10
-3.665860
 20
-2.352023
 30
0.0
 10
-3.668174
 20
-2.335344
 30
0.0
 10
-3.669049
 20
-2.319370
 30
0.0
 10
-3.668513
 20
-2.304017
 30
0.0
 10
-3.666594
 20
-2.289257
 30
0.0
 10
-3.663325
 20
-2.275005
 30
0.0
 10
-3.658734
 20
-2.261204
 30
0.0
 10
-3.652847
 20
-2.247770
 30
0.0
 10
-3.645692
 20
-2.234647
 30
0.0
 10
-3.637302
 20
-2.221778
 30
0.0
 10
-3.627701
 20
-2.209106
 30
0.0
 10
-3.616917
 20
-2.196547
 30
0.0
 10
-3.604979
 20
-2.184073
 30
0.0
 10
-3.595716
 20
-2.174929
 30
0.0
 10
-3.586840
 20
-2.166406
 30
0.0
 10
-3.578298
 20
-2.158503
 30
0.0
 10
-3.570040
 20
-2.151222
 30
0.0
 10
-3.562016
 20
-2.144590
 30
0.0
 10
-3.554176
 20
-2.138578
 30
0.0
 10
-3.546466
 20
-2.133216
 30
0.0
 10
-3.538837
 20
-2.128531
 30
0.0
 10
-3.531240
 20
-2.124496
 30
0.0
 10
-3.523623
 20
-2.121109
 30
0.0
 10
-3.515935
 20
-2.118287
 30
0.0
 10
-3.508126
 20
-2.116311
 30
0.0
 10
-3.500145
 20
-2.114900
 30
0.0
 10
-3.491940
 20
-2.114336
 30
0.0
 10
-3.483462
 20
-2.114378
 30
0.0
 10
-3.474660
 20
-2.115225
 30
0.0
 10
-3.465485
 20
-2.116636
 30
0.0
 10
-3.455884
 20
-2.118893
 30
0.0
 10
-3.445805
 20
-2.121772
 30
0.0
 10
-3.435202
 20
-2.125385
 30
0.0
 10
-3.424024
 20
-2.129731
 30
0.0
 10
-3.412215
 20
-2.134811
 30
0.0
 10
-3.399730
 20
-2.140653
 30
0.0
 10
-3.386513
 20
-2.147229
 30
0.0
 10
-3.372518
 20
-2.154566
 30
0.0
 10
-3.357693
 20
-2.162666
 30
0.0
 10
-3.341987
 20
-2.171556
 30
0.0
 10
-3.325350
 20
-2.181208
 30
0.0
 10
-3.307731
 20
-2.191650
 30
0.0
 10
-3.289079
 20
-2.202883
 30
0.0
 10
-3.269343
 20
-2.214905
 30
0.0
 10
-3.248473
 20
-2.227718
 30
0.0
 10
-3.199558
 20
-2.257462
 30
0.0
 10
-3.148928
 20
-2.287459
 30
0.0
 10
-3.096684
 20
-2.317665
 30
0.0
 10
-3.042927
 20
-2.348032
 30
0.0
 10
-2.987759
 20
-2.378518
 30
0.0
 10
-2.931281
 20
-2.409074
 30
0.0
 10
-2.873594
 20
-2.439659
 30
0.0
 10
-2.814799
 20
-2.470226
 30
0.0
 10
-2.754997
 20
-2.500732
 30
0.0
 10
-2.694290
 20
-2.531127
 30
0.0
 10
-2.632778
 20
-2.561370
 30
0.0
 10
-2.570564
 20
-2.591415
 30
0.0
 10
-2.507747
 20
-2.621215
 30
0.0
 10
-2.444430
 20
-2.650727
 30
0.0
 10
-2.380713
 20
-2.679906
 30
0.0
 10
-2.316699
 20
-2.708704
 30
0.0
 10
-2.252487
 20
-2.737081
 30
0.0
 10
-2.188179
 20
-2.764993
 30
0.0
 10
-2.123877
 20
-2.792397
 30
0.0
 10
-2.059681
 20
-2.819236
 30
0.0
 10
-1.995693
 20
-2.845455
 30
0.0
 10
-1.932014
 20
-2.871024
 30
0.0
 10
-1.868745
 20
-2.895916
 30
0.0
 10
-1.805987
 20
-2.920046
 30
0.0
 10
-1.743842
 20
-2.943414
 30
0.0
 10
-1.682410
 20
-2.965935
 30
0.0
 10
-1.621794
 20
-2.987582
 30
0.0
 10
-1.562093
 20
-3.008325
 30
0.0
 10
-1.503410
 20
-3.028081
 30
0.0
 10
-1.445846
 20
-3.046849
 30
0.0
 10
-1.389501
 20
-3.064544
 30
0.0
 10
-1.334477
 20
-3.081139
 30
0.0
 10
-1.289078
 20
-3.094403
 30
0.0
 10
-1.245000
 20
-3.107047
 30
0.0
 10
-1.202128
 20
-3.119041
 30
0.0
 10
-1.160348
 20
-3.130443
 30
0.0
 10
-1.119545
 20
-3.141224
 30
0.0
 10
-1.079604
 20
-3.151440
 30
0.0
 10
-1.040410
 20
-3.161064
 30
0.0
 10
-1.001849
 20
-3.170151
 30
0.0
 10
-0.963806
 20
-3.178703
 30
0.0
 10
-0.926166
 20
-3.186718
 30
0.0
 10
-0.888814
 20
-3.194225
 30
0.0
 10
-0.851636
 20
-3.201252
 30
0.0
 10
-0.814516
 20
-3.207800
 30
0.0
 10
-0.777341
 20
-3.213868
 30
0.0
 10
-0.739995
 20
-3.219512
 30
0.0
 10
-0.702364
 20
-3.224705
 30
0.0
 10
-0.664333
 20
-3.229503
 30
0.0
 10
-0.625786
 20
-3.233877
 30
0.0
 10
-0.586610
 20
-3.237885
 30
0.0
 10
-0.546690
 20
-3.241497
 30
0.0
 10
-0.505910
 20
-3.244771
 30
0.0
 10
-0.464157
 20
-3.247706
 30
0.0
 10
-0.421315
 20
-3.250246
 30
0.0
 10
-0.377269
 20
-3.252504
 30
0.0
 10
-0.331905
 20
-3.254479
 30
0.0
 10
-0.285109
 20
-3.256173
 30
0.0
 10
-0.236764
 20
-3.257584
 30
0.0
 10
-0.186757
 20
-3.258713
 30
0.0
 10
-0.134973
 20
-3.259559
 30
0.0
 10
-0.081297
 20
-3.260406
 30
0.0
 10
-0.025615
 20
-3.260971
 30
0.0
 10
0.032189
 20
-3.261253
 30
0.0
 10
0.142063
 20
-3.260971
 30
0.0
 10
0.250340
 20
-3.258995
 30
0.0
 10
0.357151
 20
-3.255213
 30
0.0
 10
0.462630
 20
-3.249653
 30
0.0
 10
0.566908
 20
-3.242259
 30
0.0
 10
0.670118
 20
-3.233002
 30
0.0
 10
0.772394
 20
-3.221855
 30
0.0
 10
0.873868
 20
-3.208759
 30
0.0
 10
0.974672
 20
-3.193689
 30
0.0
 10
1.074938
 20
-3.176586
 30
0.0
 10
1.174800
 20
-3.157395
 30
0.0
 10
1.274390
 20
-3.136115
 30
0.0
 10
1.373840
 20
-3.112691
 30
0.0
 10
1.473283
 20
-3.087065
 30
0.0
 10
1.572853
 20
-3.059210
 30
0.0
 10
1.672680
 20
-3.029071
 30
0.0
 10
1.772898
 20
-2.996619
 30
0.0
 10
1.873640
 20
-2.961804
 30
0.0
 10
1.975038
 20
-2.924590
 30
0.0
 10
2.077225
 20
-2.884935
 30
0.0
 10
2.180333
 20
-2.842799
 30
0.0
 10
2.284494
 20
-2.798137
 30
0.0
 10
2.389842
 20
-2.750907
 30
0.0
 10
2.496509
 20
-2.701073
 30
0.0
 10
2.604627
 20
-2.648591
 30
0.0
 10
2.714330
 20
-2.593416
 30
0.0
 10
2.825749
 20
-2.535510
 30
0.0
 10
2.939018
 20
-2.474829
 30
0.0
 10
3.054268
 20
-2.411338
 30
0.0
 10
3.171633
 20
-2.344987
 30
0.0
 10
3.291245
 20
-2.275738
 30
0.0
 10
3.413236
 20
-2.203552
 30
0.0
 10
3.431321
 20
-2.192771
 30
0.0
 10
3.448432
 20
-2.182695
 30
0.0
 10
3.464618
 20
-2.173297
 30
0.0
 10
3.479920
 20
-2.164577
 30
0.0
 10
3.494386
 20
-2.156533
 30
0.0
 10
3.508063
 20
-2.149139
 30
0.0
 10
3.520994
 20
-2.142422
 30
0.0
 10
3.533229
 20
-2.136383
 30
0.0
 10
3.544808
 20
-2.130992
 30
0.0
 10
3.555781
 20
-2.126279
 30
0.0
 10
3.566192
 20
-2.122215
 30
0.0
 10
3.576090
 20
-2.118800
 30
0.0
 10
3.585519
 20
-2.115978
 30
0.0
 10
3.594524
 20
-2.114002
 30
0.0
 10
3.603152
 20
-2.112591
 30
0.0
 10
3.611447
 20
-2.111745
 30
0.0
 10
3.619456
 20
-2.111575
 30
0.0
 10
3.627223
 20
-2.112140
 30
0.0
 10
3.634798
 20
-2.113269
 30
0.0
 10
3.642223
 20
-2.114962
 30
0.0
 10
3.649547
 20
-2.117220
 30
0.0
 10
3.656811
 20
-2.120211
 30
0.0
 10
3.664067
 20
-2.123852
 30
0.0
 10
3.671357
 20
-2.128114
 30
0.0
 10
3.678725
 20
-2.132996
 30
0.0
 10
3.686221
 20
-2.138471
 30
0.0
 10
3.693889
 20
-2.144567
 30
0.0
 10
3.701775
 20
-2.151284
 30
0.0
 10
3.709925
 20
-2.158594
 30
0.0
 10
3.718386
 20
-2.166524
 30
0.0
 10
3.727203
 20
-2.175047
 30
0.0
 10
3.736420
 20
-2.184191
 30
0.0
 10
3.744703
 20
-2.192601
 30
0.0
 10
3.752479
 20
-2.200758
 30
0.0
 10
3.759751
 20
-2.208688
 30
0.0
 10
3.766522
 20
-2.216393
 30
0.0
 10
3.772793
 20
-2.223928
 30
0.0
 10
3.778567
 20
-2.231322
 30
0.0
 10
3.783848
 20
-2.238575
 30
0.0
 10
3.788637
 20
-2.245716
 30
0.0
 10
3.792935
 20
-2.252771
 30
0.0
 10
3.796748
 20
-2.259770
 30
0.0
 10
3.800075
 20
-2.266769
 30
0.0
 10
3.802920
 20
-2.273740
 30
0.0
 10
3.805291
 20
-2.280739
 30
0.0
 10
3.807182
 20
-2.287795
 30
0.0
 10
3.808593
 20
-2.294907
 30
0.0
 10
3.809524
 20
-2.302132
 30
0.0
 10
3.810004
 20
-2.309470
 30
0.0
 10
3.810007
 20
-2.316948
 30
0.0
 10
3.809555
 20
-2.324597
 30
0.0
 10
3.808624
 20
-2.332442
 30
0.0
 10
3.807241
 20
-2.340514
 30
0.0
 10
3.805407
 20
-2.348811
 30
0.0
 10
3.803121
 20
-2.357391
 30
0.0
 10
3.800355
 20
-2.366253
 30
0.0
 10
3.797152
 20
-2.375453
 30
0.0
 10
3.793500
 20
-2.384992
 30
0.0
 10
3.789402
 20
-2.394898
 30
0.0
 10
3.784861
 20
-2.405199
 30
0.0
 10
3.779880
 20
-2.415924
 30
0.0
 10
3.774458
 20
-2.427072
 30
0.0
 10
3.768602
 20
-2.438699
 30
0.0
 10
3.762311
 20
-2.450835
 30
0.0
 10
3.735342
 20
-2.499772
 30
0.0
 10
3.705368
 20
-2.549748
 30
0.0
 10
3.672501
 20
-2.600666
 30
0.0
 10
3.636851
 20
-2.652426
 30
0.0
 10
3.598529
 20
-2.704931
 30
0.0
 10
3.557648
 20
-2.758082
 30
0.0
 10
3.514318
 20
-2.811780
 30
0.0
 10
3.468651
 20
-2.865930
 30
0.0
 10
3.420757
 20
-2.920427
 30
0.0
 10
3.370749
 20
-2.975178
 30
0.0
 10
3.318737
 20
-3.030085
 30
0.0
 10
3.264832
 20
-3.085047
 30
0.0
 10
3.209146
 20
-3.139965
 30
0.0
 10
3.151791
 20
-3.194741
 30
0.0
 10
3.092876
 20
-3.249278
 30
0.0
 10
3.032514
 20
-3.303479
 30
0.0
 10
2.970816
 20
-3.357242
 30
0.0
 10
2.907894
 20
-3.410472
 30
0.0
 10
2.843857
 20
-3.463067
 30
0.0
 10
2.778818
 20
-3.514931
 30
0.0
 10
2.712888
 20
-3.565962
 30
0.0
 10
2.646179
 20
-3.616068
 30
0.0
 10
2.578800
 20
-3.665147
 30
0.0
 10
2.510865
 20
-3.713102
 30
0.0
 10
2.442483
 20
-3.759829
 30
0.0
 10
2.373766
 20
-3.805239
 30
0.0
 10
2.304826
 20
-3.849226
 30
0.0
 10
2.235773
 20
-3.891695
 30
0.0
 10
2.166720
 20
-3.932544
 30
0.0
 10
2.097776
 20
-3.971679
 30
0.0
 10
2.029054
 20
-4.009003
 30
0.0
 10
1.960665
 20
-4.044411
 30
0.0
 10
1.887287
 20
-4.080307
 30
0.0
 10
1.812292
 20
-4.114746
 30
0.0
 10
1.735770
 20
-4.147721
 30
0.0
 10
1.657807
 20
-4.179217
 30
0.0
 10
1.578490
 20
-4.209223
 30
0.0
 10
1.497908
 20
-4.237728
 30
0.0
 10
1.416148
 20
-4.264708
 30
0.0
 10
1.333297
 20
-4.290164
 30
0.0
 10
1.249444
 20
-4.314097
 30
0.0
 10
1.164675
 20
-4.336477
 30
0.0
 10
1.079079
 20
-4.357305
 30
0.0
 10
0.992742
 20
-4.376553
 30
0.0
 10
0.905753
 20
-4.394220
 30
0.0
 10
0.818199
 20
-4.410278
 30
0.0
 10
0.730168
 20
-4.424728
 30
0.0
 10
0.641747
 20
-4.437569
 30
0.0
 10
0.553024
 20
-4.448773
 30
0.0
 10
0.464086
 20
-4.458341
 30
0.0
 10
0.375021
 20
-4.466243
 30
0.0
 10
0.285917
 20
-4.472480
 30
0.0
 10
0.196861
 20
-4.477024
 30
0.0
 10
0.107941
 20
-4.479874
 30
0.0
 10
0.019244
 20
-4.481003
 30
0.0
 10
-0.069141
 20
-4.480439
 30
0.0
 10
-0.157129
 20
-4.478181
 30
0.0
 10
-0.244630
 20
-4.474145
 30
0.0
 10
-0.331558
 20
-4.468360
 30
0.0
 10
-0.417824
 20
-4.460824
 30
0.0
 10
-0.503341
 20
-4.451511
 30
0.0
 10
-0.588022
 20
-4.440391
 30
0.0
 10
-0.671779
 20
-4.427494
 30
0.0
 10
-0.754524
 20
-4.412790
 30
0.0
 10
-0.754524
 20
-4.412790
 30
0.0
 10
-0.754524
 20
-4.412790
 30
0.0
 10
-0.754524
 20
-4.412790
 30
0.0
 10
-0.754524
 20
-4.412787
 30
0.0
 10
-0.754524
 20
-4.412787
 30
0.0
 10
-0.754524
 20
-4.412787
 30
0.0
 10
-0.754524
 20
-4.412787
 30
0.0
 10
-0.754524
 20
-4.412787
 30
0.0
 10
-0.754524
 20
-4.412787
 30
0.0
 10
-0.754524
 20
-4.412787
 30
0.0
 10
-0.754524
 20
-4.412787
 30
0.0
 10
-0.754524
 20
-4.412784
 30
0.0
 10
-0.754524
 20
-4.412784
 30
0.0
 10
-0.754524
 20
-4.412784
 30
0.0
 10
-0.754524
 20
-4.412784
 30
0.0
 10
-0.754525
 20
-4.412784
 30
0.0
 10
-0.754525
 20
-4.412784
 30
0.0
 10
-0.754525
 20
-4.412784
 30
0.0
 10
-0.754525
 20
-4.412784
 30
0.0
 10
-0.754525
 20
-4.412782
 30
0.0
 10
-0.754525
 20
-4.412782
 30
0.0
 10
-0.754525
 20
-4.412782
 30
0.0
 10
-0.754525
 20
-4.412782
 30
0.0
 10
-0.754525
 20
-4.412782
 30
0.0
 10
-0.754525
 20
-4.412782
 30
0.0
 10
-0.754525
 20
-4.412782
 30
0.0
 10
-0.754525
 20
-4.412782
 30
0.0
 10
-0.754525
 20
-4.412779
 30
0.0
 10
-0.754525
 20
-4.412779
 30
0.0
 10
-0.754525
 20
-4.412779
 30
0.0
 10
-0.754525
 20
-4.412779
 30
0.0
 10
-0.754537
 20
-4.412573
 30
0.0
  0
ENDSEC
  0
SECTION
  2
OBJECTS
  0
DICTIONARY
  5
C
330
0
100
AcDbDictionary
  3
ACAD_GROUP
350
D
  3
ACAD_MLINESTYLE
350
17
  0
DICTIONARY
  5
D
330
C
100
AcDbDictionary
  0
DICTIONARY
  5
1A
330
C
100
AcDbDictionary
  0
DICTIONARY
  5
17
330
C
100
AcDbDictionary
  3
STANDARD
350
18
  0
DICTIONARY
  5
19
330
C
100
AcDbDictionary
  0
ENDSEC
  0
EOF
